<?xml version="1.0" encoding="utf-8"?>
<svg width="132px" height="144px" viewBox="0 0 132 144" version="1.1" xmlns:xlink="http://www.w3.org/1999/xlink" xmlns="http://www.w3.org/2000/svg">
  <desc>Created with Lunacy</desc>
  <defs>
    <path d="M12 24C18.6274 24 24 18.6274 24 12C24 5.37258 18.6274 0 12 0C5.37258 0 0 5.37258 0 12C0 18.6274 5.37258 24 12 24Z" id="path_1" />
    <clipPath id="mask_1">
      <use xlink:href="#path_1" />
    </clipPath>
  </defs>
  <g id="access">
    <g id="Group-8">
      <path d="M66 1.00166e-12L132 36L132 108L66 144L4.58196e-13 108L4.58196e-13 36L66 1.00166e-12Z" id="Polygon-Copy-9" fill="#F0F3F4" fill-rule="evenodd" stroke="none" />
      <path d="M0 2.55889e-13L72 2.55889e-13L68 66L4 66L0 2.55889e-13Z" transform="translate(30 41)" id="Rectangle" fill="#D8DCDD" fill-rule="evenodd" stroke="none" />
      <path d="M48 0L0 0L0 80L48 80L48 0ZM30 2L18 2L18 4L30 4L30 2Z" transform="translate(42 32)" id="Combined-Shape" fill="#FFFFFF" fill-rule="evenodd" stroke="none" />
      <path d="M0 0L6 0L6 6L0 6L0 0Z" transform="translate(50 40)" id="Rectangle" fill="#F8333C" fill-rule="evenodd" stroke="none" />
      <g id="Oval-+-Rectangle-Mask" transform="translate(54 50)">
        <path d="M12 24C18.6274 24 24 18.6274 24 12C24 5.37258 18.6274 0 12 0C5.37258 0 0 5.37258 0 12C0 18.6274 5.37258 24 12 24Z" id="Mask" fill="#071013" fill-rule="evenodd" stroke="none" />
        <g clip-path="url(#mask_1)">
          <path d="M4 8C6.20914 8 8 6.20914 8 4C8 1.79086 6.20914 0 4 0C1.79086 0 0 1.79086 0 4C0 6.20914 1.79086 8 4 8Z" transform="translate(8 6)" id="Oval" fill="#FFFFFF" fill-rule="evenodd" stroke="none" />
          <path d="M4.49884 0.500129L4.50012 0.499987Q9 0 13.4999 0.499987L13.5012 0.500129Q13.605 0.511666 13.708 0.528784Q13.8111 0.545903 13.9131 0.568553Q14.0151 0.591204 14.1157 0.619321Q14.2163 0.647438 14.3152 0.680939Q14.4142 0.714441 14.5112 0.753229Q14.6082 0.792018 14.703 0.835981Q14.7977 0.879943 14.89 0.928952Q14.9822 0.977961 15.0717 1.03187Q15.1612 1.08579 15.2476 1.14444Q15.3341 1.2031 15.4172 1.26634Q15.5004 1.32957 15.58 1.3972Q15.6596 1.46483 15.7355 1.53665Q15.8114 1.60847 15.8833 1.68428Q15.9551 1.76009 16.0228 1.83966Q16.0905 1.91924 16.1538 2.00235Q16.2171 2.08546 16.2758 2.17186Q16.3345 2.25826 16.3885 2.3477Q16.4425 2.43714 16.4916 2.52936Q16.5407 2.62158 16.5847 2.71632Q16.6287 2.81105 16.6676 2.90802Q16.7064 3.00499 16.74 3.10392Q16.7736 3.20284 16.8018 3.30344Q16.83 3.40403 16.8527 3.50599Q16.8754 3.60796 16.8926 3.711Q16.9098 3.81405 16.9214 3.91786Q16.933 4.02169 16.939 4.12598Q16.945 4.23028 16.9454 4.33474Q16.9458 4.43921 16.9405 4.54354Q16.9352 4.64788 16.9243 4.75178Q16.9135 4.85567 16.897 4.95884Q16.8805 5.062 16.8585 5.16412Q16.8365 5.26624 16.809 5.36703L15 12L3 12L1.19101 5.36703Q1.16352 5.26624 1.14151 5.16412Q1.1195 5.062 1.10302 4.95884Q1.08655 4.85567 1.07566 4.75178Q1.06477 4.64788 1.05951 4.54354Q1.05424 4.43921 1.0546 4.33474Q1.05497 4.23028 1.06097 4.12598Q1.06696 4.02169 1.07858 3.91786Q1.09019 3.81405 1.10738 3.711Q1.12458 3.60796 1.14731 3.50599Q1.17003 3.40403 1.19822 3.30344Q1.22641 3.20284 1.25999 3.10392Q1.29356 3.00499 1.33242 2.90802Q1.37128 2.81105 1.41532 2.71632Q1.45935 2.62158 1.50843 2.52936Q1.5575 2.43714 1.61148 2.3477Q1.66546 2.25826 1.72418 2.17186Q1.78291 2.08546 1.8462 2.00235Q1.9095 1.91924 1.97718 1.83966Q2.04487 1.76009 2.11675 1.68428Q2.18863 1.60847 2.26449 1.53665Q2.34035 1.46483 2.41997 1.3972Q2.4996 1.32957 2.58275 1.26634Q2.66591 1.2031 2.75235 1.14444Q2.8388 1.08579 2.92828 1.03187Q3.01776 0.977961 3.11002 0.928952Q3.20228 0.879943 3.29704 0.835981Q3.39181 0.792018 3.48881 0.753229Q3.58581 0.714441 3.68476 0.680939Q3.78371 0.647438 3.88432 0.619321Q3.98493 0.591204 4.08692 0.568553Q4.1889 0.545903 4.29195 0.528784Q4.39501 0.511666 4.49884 0.500129L4.49884 0.500129Z" transform="translate(3 16)" id="Rectangle" fill="#FFFFFF" fill-rule="evenodd" stroke="none" />
        </g>
      </g>
      <path d="M0 0L32 0L32 6L0 6L0 0Z" transform="translate(50 84)" id="Rectangle" fill="#ADB2B4" fill-rule="evenodd" stroke="none" />
      <path d="M0 0L32 0L32 6L0 6L0 0Z" transform="translate(50 94)" id="Rectangle-Copy-8" fill="#ADB2B4" fill-rule="evenodd" stroke="none" />
    </g>
    <path d="M21 42C32.598 42 42 32.598 42 21C42 9.40202 32.598 0 21 0C9.40202 0 0 9.40202 0 21C0 32.598 9.40202 42 21 42Z" transform="translate(80 102)" id="Oval" fill="#F8333C" fill-rule="evenodd" stroke="none" />
    <path d="M7.31445 0L0 9.76563L0 11.875L7.36328 11.875L7.36328 14.6484L10.1563 14.6484L10.1563 11.875L12.1289 11.875L12.1289 9.33594L10.1563 9.33594L10.1563 0L7.31445 0ZM7.36328 9.33594L3.22266 9.33594L7.54883 3.55469C7.46419 4.52474 7.41211 5.46223 7.39258 6.36719C7.37305 7.27214 7.36328 8.18684 7.36328 9.11133L7.36328 9.33594Z" transform="translate(95.13086 115.35156)" id="4" fill="#FFFFFF" fill-rule="evenodd" stroke="none" />
  </g>
</svg>