<?xml version="1.0" encoding="utf-8"?>
<svg width="44px" height="49px" viewBox="0 0 44 49" version="1.1" xmlns:xlink="http://www.w3.org/1999/xlink" xmlns="http://www.w3.org/2000/svg">
  <desc>Created with Lunacy</desc>
  <defs>
    <path d="M22 3.33886e-13L44 12L44 36L22 48L1.52732e-13 36L1.52732e-13 12L22 3.33886e-13Z" id="path_1" />
    <clipPath id="clip_1">
      <use xlink:href="#path_1" />
    </clipPath>
  </defs>
  <g id="ci-cd">
    <path d="M20.0001 5.78947C20.0001 8.98691 17.4081 11.5789 14.2106 11.5789L14.2106 10.5263C16.8267 10.5263 18.9475 8.40556 18.9475 5.78947C18.9475 3.17339 16.8267 1.05263 14.2106 1.05263C11.5945 1.05263 9.47377 3.17339 9.47377 5.78947C9.47377 6.74109 9.69712 7.63718 10.2023 8.97075C10.2773 9.16874 10.3055 9.24124 10.4903 9.7143C10.4909 9.71579 10.4915 9.71727 10.4921 9.71875C11.9975 10.2998 12.9571 10.5263 14.2104 10.5263L14.2104 11.5789C13.0652 11.5789 12.1465 11.4123 10.9744 11.0149C11.4092 12.2718 11.579 13.1371 11.579 14.2105L11.5789 14.2105C11.5789 17.408 8.98683 20 5.7894 20C2.59196 20 -7.72476e-05 17.408 -7.82013e-05 14.2105C-7.82013e-05 11.0131 2.59196 8.42105 5.7894 8.42105C6.82409 8.42105 7.75269 8.64544 8.99022 9.1209C9.04524 9.14204 9.10104 9.16371 9.15893 9.1864C8.65335 7.82701 8.42114 6.85618 8.42114 5.78947C8.42114 2.59204 11.0132 0 14.2106 0C17.4081 0 20.0001 2.59204 20.0001 5.78947ZM9.67631 10.5287C9.64284 10.5153 9.60913 10.5017 9.57518 10.488C9.32998 10.3887 9.19541 10.3342 9.08877 10.2913C8.90652 10.218 8.75626 10.1587 8.6127 10.1035C7.48505 9.67026 6.67154 9.47369 5.7894 9.47369C3.17331 9.47369 1.05255 11.5944 1.05255 14.2105C1.05255 16.8266 3.17331 18.9474 5.7894 18.9474C8.40548 18.9474 10.5262 16.8266 10.5262 14.2105L10.5264 14.2105C10.5264 13.0709 10.301 12.1709 9.67631 10.5287Z" transform="matrix(-4.371139E-08 1 -1 -4.371139E-08 32 14)" id="Oval-Copy-4" fill="#545B5E" fill-rule="evenodd" stroke="none" />
    <g id="Polygon-Copy-3">
      <g clip-path="url(#clip_1)">
        <use xlink:href="#path_1" fill="none" stroke="#545B5E" stroke-width="2" />
      </g>
    </g>
    <path d="M8 16C12.4183 16 16 12.4183 16 8C16 3.58172 12.4183 0 8 0C3.58172 0 0 3.58172 0 8C0 12.4183 3.58172 16 8 16Z" transform="translate(25 33)" id="Oval-Copy-3" fill="#F8333C" fill-rule="evenodd" stroke="none" />
    <path d="M2.5 5C3.88071 5 5 3.88071 5 2.5C5 1.11929 3.88071 0 2.5 0C1.11929 0 0 1.11929 0 2.5C0 3.88071 1.11929 5 2.5 5ZM2.5 4C1.67157 4 1 3.32843 1 2.5C1 1.67157 1.67157 1 2.5 1C3.32843 1 4 1.67157 4 2.5C4 3.32843 3.32843 4 2.5 4ZM6.5 8C7.32843 8 8 7.32843 8 6.5C8 5.67157 7.32843 5 6.5 5C5.67157 5 5 5.67157 5 6.5C5 7.32843 5.67157 8 6.5 8ZM6.5 7C6.22386 7 6 6.77614 6 6.5C6 6.22386 6.22386 6 6.5 6C6.77614 6 7 6.22386 7 6.5C7 6.77614 6.77614 7 6.5 7Z" transform="matrix(-1 0 0 1 37 37)" id="Combined-Shape" fill="#FFFFFF" fill-rule="evenodd" stroke="none" />
  </g>
</svg>