<?xml version="1.0" encoding="utf-8"?>
<svg width="32px" height="29px" viewBox="0 0 32 29" version="1.1" xmlns:xlink="http://www.w3.org/1999/xlink" xmlns="http://www.w3.org/2000/svg">
  <desc>Created with Lunacy</desc>
  <g id="gitlab">
    <g id="Group">
      <g id="Group">
        <path d="M5.88014 17.8403L5.88014 17.8403L11.7688 0L0 0L5.88014 17.8403L5.88014 17.8403Z" transform="translate(10.105941 11.157261)" id="path50_1_" fill="#E24329" fill-rule="evenodd" stroke="none" />
        <path d="M1.85297 0L1.85297 0L0.0597431 5.42011C-0.102529 5.91227 0.0727135 6.45553 0.501021 6.76231L15.9812 17.8402L1.85297 0L1.85297 0Z" transform="translate(0.0049196235 11.157261)" id="path66_1_" fill="#FCA326" fill-rule="evenodd" stroke="none" />
        <path d="M0 11.1566L8.24805 11.1566L4.69832 0.412271C4.51664 -0.137424 3.72488 -0.137424 3.53666 0.412271L0 11.1566L0 11.1566Z" transform="translate(1.8578935 0.0006294212)" id="path74_1_" fill="#E24329" fill-rule="evenodd" stroke="none" />
        <path d="M14.1367 0L14.1367 0L15.9235 5.42011C16.0858 5.91227 15.9105 6.45553 15.4822 6.76232L0 17.8403L14.1367 0L14.1367 0Z" transform="translate(15.986083 11.157261)" id="path82_1_" fill="#FCA326" fill-rule="evenodd" stroke="none" />
        <path d="M8.24805 11.1566L0 11.1566L3.5432 0.412271C3.72488 -0.137424 4.51664 -0.137424 4.70485 0.412271L8.24805 11.1566L8.24805 11.1566Z" transform="translate(21.874746 0.0006294212)" id="path86_1_" fill="#E24329" fill-rule="evenodd" stroke="none" />
        <path d="M0 17.8403L5.88866 0L14.1367 0L0 17.8403Z" transform="translate(15.986083 11.157261)" id="Path" fill="#FC6D26" fill-rule="evenodd" stroke="none" />
        <path d="M14.1282 17.8403L0 0L8.24805 0L14.1282 17.8403Z" transform="translate(1.8578935 11.157261)" id="Path" fill="#FC6D26" fill-rule="evenodd" stroke="none" />
      </g>
    </g>
  </g>
</svg>