<?xml version="1.0" encoding="utf-8"?>
<svg width="29px" height="32px" viewBox="0 0 29 32" version="1.1" xmlns:xlink="http://www.w3.org/1999/xlink" xmlns="http://www.w3.org/2000/svg">
  <desc>Created with Lunacy</desc>
  <defs>
    <linearGradient x1="0.4998834" y1="1.2249107" x2="0.4998834" y2="0.31130654" id="gradient_1">
      <stop offset="0" stop-color="#FFF200" />
      <stop offset="1" stop-color="#F15A29" />
    </linearGradient>
  </defs>
  <path d="M12.9156 3.65301C12.9156 3.65301 12.9045 3.6996 12.8903 3.77831C12.7591 3.81687 12.6278 3.85382 12.4966 3.89719C12.3148 3.95341 12.1361 4.02088 11.9543 4.08675C11.7757 4.15743 11.5938 4.22811 11.4168 4.30843C11.0594 4.46426 10.7053 4.63936 10.359 4.83695C10.0239 5.02811 9.69341 5.23855 9.37246 5.46667C9.32661 5.44418 9.29025 5.42811 9.29025 5.42811C6.01273 4.15582 3.10202 5.68675 3.10202 5.68675C2.8364 9.22892 4.41113 11.4618 4.72259 11.8667C4.64512 12.0851 4.57239 12.3068 4.50599 12.5301C4.26409 13.3333 4.08227 14.1574 3.97002 15.0088C3.9542 15.1309 3.93997 15.2546 3.92575 15.3783C0.898036 16.898 0 20.0129 0 20.0129C2.5281 22.9671 5.47517 23.1502 5.47517 23.1502C5.47834 23.1486 5.47992 23.1454 5.48308 23.1438C5.85779 23.8233 6.291 24.4707 6.77954 25.0731C6.98349 25.3253 7.19852 25.5695 7.42145 25.8056C6.49969 28.4835 7.55109 30.7116 7.55109 30.7116C10.3654 30.8193 12.2136 29.4602 12.6025 29.147C12.8824 29.2434 13.167 29.3285 13.4531 29.404C14.318 29.6305 15.2034 29.7639 16.0888 29.8024C16.3101 29.812 16.5315 29.8169 16.7512 29.8153L16.8587 29.8153L16.9283 29.8137L17.0674 29.8088L17.205 29.8024L17.2081 29.8072C18.5331 31.7285 20.8651 32 20.8651 32C22.5236 30.2233 22.6185 28.461 22.6185 28.0803C22.6185 27.6996 22.6185 28.0675 22.6185 28.0546C22.6185 28.0225 22.6169 28.0016 22.6169 28.0016C22.6153 27.9743 22.6153 27.9486 22.6122 27.9197C22.96 27.6723 23.292 27.4056 23.6066 27.1197C24.2707 26.5092 24.8509 25.8153 25.3316 25.0651C25.3774 24.9944 25.4217 24.9237 25.4644 24.8514C27.3411 24.9606 28.6644 23.6707 28.6644 23.6707C28.353 21.6835 27.2383 20.7149 27.0059 20.5317C26.7735 20.3486 26.9964 20.5237 26.9822 20.5141C26.9695 20.5044 26.9601 20.498 26.9601 20.498C26.949 20.49 26.9348 20.4803 26.9189 20.4707C26.93 20.3502 26.9411 20.2313 26.9474 20.1124C26.9616 19.8988 26.9664 19.6835 26.968 19.4715L26.9664 19.3125L26.9648 19.2321L26.9648 19.192C26.9648 19.1374 26.9632 19.1582 26.9632 19.1374L26.9569 19.004L26.9474 18.8241C26.9442 18.7614 26.9395 18.7084 26.9348 18.6522C26.93 18.5976 26.9253 18.5414 26.9189 18.4867L26.9 18.3213L26.8778 18.1574C26.8462 17.939 26.8051 17.7221 26.7561 17.5084C26.56 16.6522 26.2312 15.8394 25.7964 15.1084C25.3616 14.3775 24.8209 13.7301 24.2122 13.1855C23.6035 12.6394 22.9205 12.2008 22.2043 11.8731C21.488 11.5454 20.7355 11.3349 19.986 11.2386C19.6113 11.1888 19.2382 11.1695 18.8682 11.1743L18.7307 11.1775L18.6959 11.1791C18.6864 11.1791 18.6437 11.1807 18.6485 11.1807L18.5916 11.1839L18.454 11.1936C18.4018 11.1968 18.3481 11.2016 18.3022 11.2064C18.1125 11.2257 17.9244 11.2514 17.7378 11.2867C16.9947 11.4281 16.2927 11.7012 15.6745 12.0771C15.0563 12.453 14.5188 12.9237 14.0808 13.457C13.6445 13.9888 13.3045 14.5783 13.0705 15.1888C12.8365 15.7992 12.7053 16.4289 12.6689 17.041C12.6595 17.1936 12.6563 17.3462 12.6595 17.4972C12.6595 17.5341 12.661 17.5727 12.6626 17.6096L12.6674 17.7317C12.6721 17.8056 12.6784 17.8779 12.6848 17.9502C12.7148 18.2602 12.7701 18.5574 12.8524 18.845C13.0152 19.4185 13.2777 19.9373 13.6002 20.3775C13.9227 20.8193 14.3085 21.1839 14.718 21.4683C15.1275 21.7526 15.5654 21.9566 15.9986 22.0867C16.4334 22.2169 16.8651 22.2731 17.2714 22.2715C17.322 22.2715 17.3726 22.2699 17.4232 22.2683C17.45 22.2683 17.4769 22.2651 17.5038 22.2651L17.5844 22.2602C17.6271 22.2554 17.6714 22.2522 17.7141 22.2474C17.7236 22.2474 17.7378 22.2442 17.7504 22.2426L17.79 22.2378C17.8168 22.2345 17.8421 22.2297 17.869 22.2265C17.9228 22.2201 17.9686 22.2088 18.0161 22.2008C18.0635 22.1912 18.1109 22.1815 18.1584 22.1687C18.2516 22.1478 18.3418 22.1189 18.4319 22.0916C18.609 22.0321 18.775 21.9598 18.9299 21.8795C19.0848 21.7992 19.2271 21.7076 19.3599 21.6129C19.3979 21.5855 19.4343 21.5566 19.4706 21.5277C19.6129 21.4153 19.6351 21.2032 19.5212 21.0618C19.4216 20.9382 19.2509 20.906 19.1149 20.9831C19.0817 21.0024 19.0469 21.0201 19.0121 21.0378C18.8935 21.0956 18.7702 21.1502 18.639 21.1936C18.5078 21.2353 18.3718 21.2707 18.2295 21.2964C18.1584 21.306 18.0872 21.3173 18.0145 21.3237C17.9781 21.3285 17.9417 21.3301 17.9038 21.3301C17.8674 21.3317 17.8279 21.3349 17.7947 21.3333C17.7599 21.3333 17.7251 21.3317 17.6888 21.3317C17.6445 21.3301 17.6002 21.3269 17.556 21.3253C17.556 21.3253 17.5338 21.3253 17.5512 21.3237L17.537 21.3221L17.507 21.3189C17.4864 21.3173 17.4674 21.3157 17.4469 21.3125C17.4074 21.3076 17.3678 21.3028 17.3283 21.2964C17.0105 21.2514 16.688 21.1566 16.3781 21.0137C16.0666 20.8707 15.7694 20.6747 15.5006 20.4289C15.2318 20.1847 14.9978 19.8892 14.8144 19.555C14.631 19.2225 14.503 18.8514 14.4429 18.4627C14.4128 18.2683 14.4002 18.0675 14.4049 17.8715C14.4081 17.8169 14.4097 17.7639 14.4128 17.7092C14.4128 17.7237 14.4144 17.7012 14.4144 17.6996L14.416 17.6803L14.4192 17.6402C14.4208 17.6129 14.4239 17.5871 14.4271 17.5598C14.4381 17.4538 14.454 17.3462 14.4729 17.2418C14.62 16.3952 15.0374 15.5695 15.6824 14.9414C15.8437 14.7855 16.0176 14.6394 16.2026 14.5108C16.3876 14.3823 16.5852 14.2667 16.7907 14.1703C16.9963 14.0739 17.2113 13.9952 17.4311 13.9341C17.6508 13.8747 17.8769 13.8345 18.1062 13.8137C18.22 13.804 18.3354 13.7992 18.4508 13.7992C18.4809 13.7992 18.5046 13.8008 18.5283 13.8008L18.6216 13.804L18.6801 13.8056C18.7038 13.8056 18.6801 13.8056 18.6912 13.8072L18.7149 13.8088L18.8082 13.8153C19.0564 13.8361 19.3046 13.8715 19.5481 13.9277C20.0366 14.0386 20.511 14.2201 20.9536 14.4691C21.839 14.9671 22.5932 15.7462 23.0564 16.6859C23.2904 17.1534 23.4517 17.6578 23.5339 18.1783C23.5529 18.3084 23.5687 18.4402 23.5798 18.5719L23.5877 18.6715L23.5924 18.7711C23.594 18.8048 23.594 18.8369 23.5956 18.8707C23.5956 18.9028 23.5972 18.9398 23.5972 18.9639L23.5972 19.049L23.5956 19.1454C23.5924 19.2096 23.5877 19.3141 23.5845 19.3783C23.5734 19.5213 23.5624 19.6659 23.5434 19.8088C23.526 19.9502 23.5023 20.0916 23.477 20.2329C23.4485 20.3727 23.4201 20.5124 23.3837 20.6506C23.3157 20.9285 23.2272 21.2 23.1244 21.4667C22.9173 22 22.6406 22.506 22.307 22.9735C21.6382 23.9068 20.726 24.6699 19.6888 25.1486C19.1702 25.3863 18.6232 25.5614 18.0603 25.6562C17.7789 25.7044 17.4943 25.7333 17.2097 25.743L17.1575 25.7446L17.1117 25.7446L17.02 25.7462L16.8793 25.7462L16.8097 25.7462C16.8492 25.7462 16.8034 25.7462 16.805 25.7446L16.7765 25.743C16.6232 25.7398 16.4714 25.7317 16.3196 25.7205C15.7109 25.6739 15.1085 25.5647 14.5251 25.3912C13.9417 25.2193 13.3757 24.9896 12.8397 24.7004C11.7693 24.1189 10.8128 23.3221 10.0634 22.3614C9.68709 21.8827 9.35823 21.3687 9.08629 20.8273C8.81435 20.2859 8.60091 19.7189 8.4428 19.139C8.28628 18.559 8.18825 17.9647 8.15031 17.3671L8.14398 17.2546L8.1424 17.2273L8.1424 17.2032L8.14082 17.1534L8.13766 17.0554L8.13608 17.0313L8.13608 16.9976L8.13608 16.9285L8.1345 16.7888L8.1345 16.7614C8.1345 16.7663 8.1345 16.7663 8.1345 16.7518L8.1345 16.6972C8.1345 16.6249 8.13766 16.551 8.13924 16.4787C8.15031 16.1831 8.17403 15.8795 8.21197 15.5759C8.24992 15.2723 8.29893 14.9671 8.36059 14.6635C8.42225 14.3614 8.49498 14.061 8.57719 13.7671C8.7432 13.1775 8.95032 12.6056 9.19538 12.0659C9.68709 10.9847 10.3322 10.0321 11.1069 9.26426C11.2998 9.07149 11.5006 8.88996 11.7093 8.71968C11.918 8.5494 12.1346 8.39197 12.3575 8.24418C12.5788 8.09478 12.8081 7.95984 13.0437 7.83454C13.1607 7.77028 13.2808 7.71406 13.401 7.65462C13.4611 7.62731 13.5227 7.6 13.5828 7.57269C13.6429 7.54538 13.7045 7.51807 13.7662 7.49398C14.0113 7.38795 14.2642 7.2996 14.5172 7.21606C14.582 7.19679 14.6453 7.1759 14.7085 7.15663C14.7717 7.13574 14.8381 7.12128 14.9014 7.10201C15.0295 7.06506 15.1607 7.03454 15.2903 7.0008C15.3552 6.98313 15.4216 6.97189 15.4864 6.95743C15.5528 6.94297 15.6176 6.92851 15.684 6.91566C15.7504 6.90281 15.8168 6.89157 15.8816 6.87872L15.9812 6.86104L16.0809 6.84498C16.1473 6.83534 16.2137 6.8241 16.2801 6.81446C16.3544 6.80161 16.4303 6.79518 16.5046 6.78394C16.5662 6.7759 16.6658 6.76466 16.7275 6.75663C16.7749 6.75181 16.8208 6.74699 16.8682 6.74217L16.9615 6.73253L17.0089 6.72771L17.0643 6.7245C17.1402 6.71968 17.2145 6.71486 17.2904 6.71004L17.4026 6.70201C17.4026 6.70201 17.4437 6.7004 17.4074 6.7004L17.4311 6.6988L17.4785 6.69719C17.5433 6.69398 17.6066 6.69076 17.6714 6.68755C17.9275 6.67952 18.1821 6.67952 18.4335 6.68755C18.9378 6.70843 19.4327 6.76466 19.9133 6.85462C20.8762 7.03614 21.7821 7.351 22.6011 7.76225C23.4217 8.17028 24.1569 8.67149 24.7956 9.21606C24.8351 9.2498 24.8746 9.28514 24.9142 9.31888C24.9537 9.35422 24.9916 9.38795 25.0296 9.42329C25.1071 9.49237 25.1814 9.56466 25.2557 9.63373C25.33 9.70442 25.4011 9.77671 25.4739 9.84739C25.5434 9.91968 25.6146 9.99036 25.6826 10.0643C25.9529 10.355 26.2043 10.6506 26.4304 10.9478C26.8842 11.5406 27.2462 12.1382 27.5356 12.7036C27.5545 12.739 27.5719 12.7743 27.5893 12.8096C27.6067 12.845 27.6241 12.8803 27.6399 12.9157C27.6731 12.9847 27.7079 13.0538 27.7379 13.1229C27.7696 13.192 27.8012 13.2594 27.8312 13.3269C27.8597 13.3944 27.8881 13.4618 27.9166 13.5261C28.0241 13.7912 28.1221 14.0418 28.2028 14.2811C28.3356 14.6651 28.432 15.012 28.5079 15.3124C28.5379 15.4329 28.6502 15.5133 28.7719 15.502C28.8984 15.4908 28.9949 15.3847 28.998 15.2562C29.0044 14.9333 28.9964 14.5526 28.9601 14.1189C28.9127 13.5823 28.8225 12.9606 28.6439 12.2779C28.4684 11.5952 28.2075 10.8482 27.8281 10.0723C27.447 9.29799 26.9506 8.49157 26.3055 7.71245C26.0541 7.40723 25.779 7.10522 25.4818 6.81124C25.9245 5.02169 24.9426 3.46988 24.9426 3.46988C23.2477 3.36225 22.1695 4.00482 21.7695 4.2988C21.7031 4.26988 21.6351 4.24096 21.5671 4.21205C21.2778 4.09317 20.9821 3.98233 20.677 3.88434C20.3718 3.78635 20.0604 3.69639 19.7426 3.62088C19.4232 3.54538 19.0991 3.48112 18.7686 3.42972C18.7101 3.42169 18.6532 3.41365 18.5947 3.40402C17.858 1.00402 15.7346 0 15.7346 0C13.3662 1.51807 12.9156 3.65301 12.9156 3.65301" id="grafana" fill="url(#gradient_1)" fill-rule="evenodd" stroke="none" />
</svg>