<?xml version="1.0" encoding="utf-8"?>
<svg width="32px" height="31px" viewBox="0 0 32 31" version="1.1" xmlns:xlink="http://www.w3.org/1999/xlink" xmlns="http://www.w3.org/2000/svg">
  <desc>Created with Lunacy</desc>
  <g id="kubernetes">
    <path d="M29.0494 6.86136C28.8674 6.27741 28.4306 5.80296 27.8845 5.51098L16.7813 0.182483C16.4901 0.0364966 16.1624 0 15.8712 0C15.58 0 15.2523 0 14.9611 0.0729932L3.85789 5.43799C3.31183 5.69347 2.91139 6.16792 2.76577 6.78837L0.0354705 18.7957C-0.0737414 19.4162 0.0718745 20.0366 0.435914 20.5476L8.11716 30.0732C8.554 30.5111 9.17287 30.8031 9.79174 30.8396L22.0235 30.8396C22.6788 30.9126 23.2976 30.6206 23.6981 30.0732L31.3793 20.5476C31.7433 20.0366 31.889 19.4162 31.8162 18.7957L29.0494 6.86136Z" id="path10349" fill="#326DE6" fill-rule="evenodd" stroke="none" />
    <path d="M23.5294 14.4231L23.5294 14.4231C23.493 14.4231 23.4566 14.4231 23.4566 14.3866C23.4566 14.3502 23.3838 14.3502 23.3109 14.3502C23.1653 14.3137 23.0197 14.3137 22.8741 14.3137C22.8013 14.3137 22.7285 14.3137 22.6557 14.2772L22.6193 14.2772C22.2188 14.2407 21.782 14.1677 21.3815 14.0582C21.2723 14.0217 21.1631 13.9122 21.1267 13.8027C21.1631 13.8027 21.1267 13.8027 21.1267 13.8027L21.1267 13.8027L20.8355 13.7297C20.9811 12.6713 20.9083 11.5764 20.6899 10.518C20.435 9.45961 19.9982 8.4377 19.4157 7.52529L19.6341 7.30631L19.6341 7.30631L19.6341 7.26981C19.6341 7.16032 19.6706 7.01434 19.7434 6.94134C20.071 6.64937 20.3986 6.43039 20.7627 6.21141L20.7627 6.21141C20.8355 6.17492 20.9083 6.13842 20.9811 6.10192C21.1267 6.02893 21.2359 5.95594 21.3815 5.88294C21.4179 5.84645 21.4543 5.84645 21.4908 5.80995C21.5272 5.77345 21.4908 5.77345 21.4908 5.73696L21.4908 5.73696C21.8184 5.48148 21.8912 5.04352 21.6364 4.71505C21.5272 4.56907 21.3087 4.45958 21.1267 4.45958C20.9447 4.45958 20.7627 4.53257 20.6171 4.64206L20.6171 4.64206L20.5807 4.67856C20.5442 4.71505 20.5078 4.75155 20.4714 4.75155C20.3622 4.86104 20.253 4.97053 20.1802 5.08002C20.1438 5.15301 20.071 5.18951 20.0346 5.22601L20.0346 5.22601C19.7798 5.51798 19.4521 5.80995 19.1245 6.02893C19.0517 6.06543 18.9789 6.10192 18.9061 6.10192C18.8697 6.10192 18.7969 6.10192 18.7605 6.06543L18.724 6.06543L18.4328 6.24791C18.1416 5.95594 17.8139 5.66396 17.5227 5.37199C16.1758 4.31359 14.5012 3.65665 12.7902 3.47417L12.7538 3.1822L12.7538 3.1822L12.7538 3.21869C12.6446 3.1457 12.6082 3.03621 12.5718 2.92672C12.5718 2.52526 12.5718 2.12379 12.6446 1.68584L12.6446 1.64934C12.6446 1.57635 12.681 1.50335 12.681 1.43036C12.7174 1.28437 12.7174 1.13839 12.7538 0.992401L12.7538 0.773421L12.7538 0.773421C12.7902 0.408455 12.499 0.0434894 12.1349 0.00699281C11.9165 -0.0295038 11.6981 0.079986 11.5161 0.262469C11.3704 0.408455 11.2976 0.590938 11.2976 0.773421L11.2976 0.773421L11.2976 0.955904C11.2976 1.10189 11.334 1.24788 11.3704 1.39386C11.4068 1.46686 11.4068 1.53985 11.4068 1.61284L11.4068 1.64934C11.4797 2.0508 11.4797 2.45226 11.4797 2.89022C11.4432 2.99971 11.4068 3.1092 11.2976 3.1822L11.2976 3.25519L11.2976 3.25519L11.2612 3.54716C10.8608 3.58366 10.4603 3.65665 10.0235 3.72965C8.31251 4.09461 6.74713 5.00703 5.5458 6.28441L5.32738 6.13842L5.29098 6.13842C5.25457 6.13842 5.21817 6.17492 5.14536 6.17492C5.07255 6.17492 4.99974 6.13842 4.92694 6.10192C4.5993 5.84645 4.27166 5.55447 4.01684 5.2625L4.01684 5.2625C3.98043 5.18951 3.90762 5.15301 3.87122 5.11652C3.76201 5.00703 3.6892 4.89754 3.57999 4.78805C3.54358 4.75155 3.50718 4.75155 3.47078 4.71505C3.43437 4.67856 3.43437 4.67856 3.43437 4.67856L3.43437 4.67856C3.28876 4.56907 3.10674 4.49607 2.92472 4.49607C2.70629 4.49607 2.52427 4.56907 2.41506 4.75155C2.19664 5.08002 2.26944 5.51798 2.56068 5.77345L2.56068 5.77345C2.59708 5.77345 2.59708 5.80995 2.59708 5.80995C2.59708 5.80995 2.66989 5.88294 2.70629 5.88294C2.8155 5.95594 2.96112 6.02893 3.10674 6.10192C3.17954 6.13842 3.25235 6.17492 3.32516 6.21141L3.32516 6.21141C3.6892 6.43039 4.05324 6.64937 4.34447 6.94134C4.41728 7.01434 4.49009 7.16032 4.45368 7.26981L4.45368 7.23332L4.45368 7.23332L4.67211 7.4523C4.6357 7.52529 4.5993 7.56179 4.5629 7.63478C3.43437 9.42311 2.96112 11.5399 3.28876 13.6202L2.99752 13.6932L2.99752 13.6932C2.99752 13.7297 2.96112 13.7297 2.96112 13.7297C2.92472 13.8392 2.8155 13.9122 2.70629 13.9852C2.30585 14.0947 1.9054 14.1677 1.46856 14.2042L1.46856 14.2042C1.39575 14.2042 1.32294 14.2042 1.25013 14.2407C1.10452 14.2407 0.9589 14.2772 0.813285 14.2772C0.776881 14.2772 0.740476 14.3137 0.667669 14.3137C0.631265 14.3137 0.631265 14.3137 0.594861 14.3502L0.594861 14.3502C0.194417 14.4231 -0.0604113 14.7881 0.0123967 15.1896C0.0123967 15.1896 0.0123967 15.1896 0.0123967 15.1896C0.0852047 15.518 0.412841 15.737 0.740476 15.7005C0.813285 15.7005 0.849688 15.7005 0.922496 15.664L0.922496 15.664C0.9589 15.664 0.9589 15.664 0.9589 15.6275C0.9589 15.591 1.06811 15.6275 1.10452 15.6275C1.25013 15.591 1.39575 15.518 1.50496 15.4815C1.57777 15.445 1.65058 15.4086 1.72338 15.4086L1.75979 15.4086C2.16023 15.2626 2.52427 15.1531 2.96112 15.0801L2.99752 15.0801C3.10674 15.0801 3.21595 15.1166 3.28876 15.1896C3.32516 15.1896 3.32516 15.2261 3.32516 15.2261L3.32516 15.2261L3.6528 15.1896C4.19886 16.8684 5.21817 18.3648 6.63792 19.4597C6.96556 19.7152 7.25679 19.9341 7.62083 20.1166L7.43881 20.3721L7.43881 20.3721C7.43881 20.4086 7.47521 20.4086 7.47521 20.4086C7.54802 20.5181 7.54802 20.6641 7.51162 20.7736C7.366 21.1385 7.14758 21.5035 6.92916 21.832L6.92916 21.8684C6.89275 21.9414 6.85635 21.9779 6.78354 22.0509C6.71073 22.1239 6.63792 22.2699 6.52871 22.4159C6.49231 22.4524 6.49231 22.4889 6.4559 22.5254C6.4559 22.5254 6.4559 22.5619 6.4195 22.5619L6.4195 22.5619C6.23748 22.9268 6.3831 23.3648 6.71073 23.5473C6.78354 23.5838 6.89275 23.6203 6.96556 23.6203C7.25679 23.6203 7.51162 23.4378 7.65723 23.1823L7.65723 23.1823C7.65723 23.1823 7.65723 23.1458 7.69364 23.1458C7.69364 23.1093 7.73004 23.0728 7.76645 23.0363C7.80285 22.8904 7.87566 22.7809 7.91206 22.6349L7.98487 22.4159L7.98487 22.4159C8.09408 22.0144 8.2761 21.6495 8.45812 21.2845C8.53093 21.175 8.64014 21.102 8.74935 21.0655C8.78576 21.0655 8.78576 21.0655 8.78576 21.029L8.78576 21.029L8.93137 20.7371C9.95069 21.1385 11.0064 21.321 12.0985 21.321C12.7538 21.321 13.4091 21.248 14.0643 21.0655C14.4648 20.9925 14.8652 20.8465 15.2293 20.7371L15.3749 20.9925L15.3749 20.9925C15.4113 20.9925 15.4113 20.9925 15.4113 21.029C15.5205 21.0655 15.6297 21.1385 15.7025 21.248C15.8845 21.613 16.0666 21.9779 16.1758 22.3794L16.1758 22.4159L16.2486 22.6349C16.285 22.7809 16.3214 22.9268 16.3942 23.0363C16.4306 23.0728 16.4306 23.1093 16.467 23.1458C16.467 23.1458 16.467 23.1823 16.5034 23.1823L16.5034 23.1823C16.649 23.4378 16.9038 23.6203 17.1951 23.6203C17.3043 23.6203 17.3771 23.5838 17.4863 23.5473C17.6319 23.4743 17.7775 23.3283 17.8139 23.1458C17.8504 22.9633 17.8504 22.7809 17.7775 22.5984L17.7775 22.5984C17.7775 22.5619 17.7411 22.5619 17.7411 22.5619C17.7411 22.5254 17.7047 22.4889 17.6683 22.4524C17.5955 22.3064 17.5227 22.1969 17.4135 22.0874C17.3771 22.0144 17.3407 21.9779 17.2679 21.9049L17.2679 21.832C17.0131 21.5035 16.831 21.1385 16.6854 20.7736C16.649 20.6641 16.649 20.5181 16.7218 20.4086C16.7218 20.3721 16.7582 20.3721 16.7582 20.3721L16.7582 20.3721L16.649 20.0801C18.5056 18.9487 19.9254 17.1969 20.5807 15.1166L20.8719 15.1531L20.8719 15.1531C20.9083 15.1531 20.9083 15.1166 20.9083 15.1166C20.9811 15.0436 21.0903 15.0071 21.1995 15.0071L21.2359 15.0071C21.6364 15.0801 22.0368 15.1896 22.4009 15.3356L22.4373 15.3356C22.5101 15.3721 22.5829 15.4086 22.6557 15.4086C22.8013 15.4815 22.9105 15.5545 23.0561 15.591C23.0925 15.591 23.1289 15.6275 23.2017 15.6275C23.2381 15.6275 23.2381 15.6275 23.2745 15.664L23.2745 15.664C23.3474 15.7005 23.3838 15.7005 23.4566 15.7005C23.7842 15.7005 24.0754 15.4815 24.1846 15.1896C24.1482 14.7881 23.857 14.4961 23.5294 14.4231L23.5294 14.4231ZM13.0086 13.2918L12.0257 13.7662L11.0428 13.2918L10.788 12.2333L11.4797 11.3574L12.5718 11.3574L13.2634 12.2333L13.0086 13.2918L13.0086 13.2918ZM18.9425 10.9195C19.1245 11.6859 19.1609 12.4523 19.0881 13.2188L15.6297 12.2333L15.6297 12.2333C15.3021 12.1604 15.1201 11.8319 15.1929 11.5034C15.2293 11.3939 15.2657 11.3209 15.3385 11.2479L18.0688 8.76617C18.4692 9.42311 18.7605 10.153 18.9425 10.9195L18.9425 10.9195ZM16.9767 7.4158L13.9915 9.5326C13.7367 9.67859 13.3727 9.64209 13.1906 9.38662C13.1178 9.31362 13.0814 9.24063 13.0814 9.13114L12.863 5.44498C14.4648 5.62747 15.8845 6.3209 16.9767 7.4158L16.9767 7.4158L16.9767 7.4158ZM10.3875 5.55447L11.1156 5.40849L10.9336 9.05815L10.9336 9.05815C10.9336 9.38662 10.6424 9.64209 10.3147 9.64209C10.2055 9.64209 10.1327 9.60559 10.0235 9.5691L7.00196 7.4158C7.94847 6.50339 9.11339 5.84645 10.3875 5.55447ZM5.94625 8.76617L8.64014 11.1749L8.64014 11.1749C8.89497 11.3939 8.93137 11.7589 8.71295 12.0144C8.64014 12.1239 8.56733 12.1604 8.42172 12.1969L4.89053 13.2188C4.78132 11.6859 5.14536 10.1165 5.94625 8.76617L5.94625 8.76617ZM5.32738 14.9341L8.93137 14.3137C9.22261 14.3137 9.51384 14.4961 9.55024 14.7881C9.58665 14.8976 9.58665 15.0436 9.51384 15.1531L9.51384 15.1531L8.13049 18.5108C6.85635 17.6713 5.83704 16.394 5.32738 14.9341L5.32738 14.9341ZM13.5911 19.4597C13.0814 19.5692 12.5718 19.6422 12.0257 19.6422C11.2612 19.6422 10.4603 19.4962 9.73226 19.2772L11.5161 16.029C11.6981 15.81 11.9893 15.737 12.2441 15.883C12.3533 15.956 12.4262 16.029 12.5354 16.1385L12.5354 16.1385L14.2828 19.3137C14.0643 19.3502 13.8459 19.3867 13.5911 19.4597L13.5911 19.4597ZM18.0324 16.2845C17.4863 17.1604 16.7218 17.9268 15.8481 18.4743L14.4284 15.0436C14.3556 14.7516 14.5012 14.4596 14.756 14.3502C14.8652 14.3137 14.9744 14.2772 15.0836 14.2772L18.724 14.8976C18.542 15.4086 18.3236 15.883 18.0324 16.2845Z" transform="translate(3.809089 3.898142)" id="path10351" fill="#FFFFFF" stroke="none" />
  </g>
</svg>