<?xml version="1.0" encoding="utf-8"?>
<svg width="201px" height="1121px" viewBox="0 0 201 1121" version="1.1" xmlns:xlink="http://www.w3.org/1999/xlink" xmlns="http://www.w3.org/2000/svg">
  <desc>Created with Lunacy</desc>
  <defs>
    <linearGradient x1="0.5" y1="0" x2="0.5" y2="1" id="gradient_1">
      <stop offset="0" stop-color="#071013" />
      <stop offset="0.08963749" stop-color="#545B5E" />
      <stop offset="0.4993733" stop-color="#545B5E" />
      <stop offset="0.9105863" stop-color="#545B5E" />
      <stop offset="1" stop-color="#071013" />
    </linearGradient>
  </defs>
  <g id="path+arrows" transform="translate(0.5 0.5)">
    <path d="M0 0L178.389 17.8389Q178.938 17.8938 179.484 17.9739Q180.03 18.0539 180.571 18.159Q181.113 18.2641 181.649 18.394Q182.186 18.5238 182.715 18.6782Q183.245 18.8325 183.767 19.0111Q184.289 19.1896 184.802 19.392Q185.316 19.5943 185.819 19.8201Q186.323 20.0458 186.815 20.2944Q187.308 20.543 187.788 20.814Q188.269 21.085 188.737 21.3778Q189.204 21.6706 189.658 21.9846Q190.112 22.2986 190.551 22.6331Q190.989 22.9676 191.412 23.3219Q191.835 23.6762 192.241 24.0496Q192.648 24.423 193.036 24.8146Q193.425 25.2062 193.795 25.6153Q194.165 26.0244 194.516 26.4501Q194.867 26.8758 195.199 27.3171Q195.53 27.7585 195.84 28.2146Q196.151 28.6707 196.44 29.1406Q196.729 29.6105 196.996 30.0932Q197.263 30.5759 197.508 31.0704Q197.753 31.5648 197.975 32.07Q198.197 32.5752 198.395 33.09Q198.594 33.6049 198.768 34.1283Q198.943 34.6517 199.093 35.1826Q199.243 35.7135 199.369 36.2508Q199.494 36.788 199.595 37.3304Q199.696 37.8729 199.772 38.4194Q199.848 38.9659 199.899 39.5153Q199.949 40.0647 199.975 40.6159Q200 41.167 200 41.7188L200 198.281Q200 198.833 199.975 199.384Q199.949 199.935 199.899 200.485Q199.848 201.034 199.772 201.581Q199.696 202.127 199.595 202.67Q199.494 203.212 199.369 203.749Q199.243 204.286 199.093 204.817Q198.943 205.348 198.768 205.872Q198.594 206.395 198.395 206.91Q198.197 207.425 197.975 207.93Q197.753 208.435 197.508 208.93Q197.263 209.424 196.996 209.907Q196.729 210.389 196.44 210.859Q196.151 211.329 195.84 211.785Q195.53 212.241 195.199 212.683Q194.867 213.124 194.516 213.55Q194.165 213.976 193.795 214.385Q193.425 214.794 193.036 215.185Q192.648 215.577 192.241 215.95Q191.835 216.324 191.412 216.678Q190.989 217.032 190.551 217.367Q190.112 217.701 189.658 218.015Q189.204 218.329 188.737 218.622Q188.269 218.915 187.788 219.186Q187.308 219.457 186.815 219.706Q186.323 219.954 185.819 220.18Q185.316 220.406 184.802 220.608Q184.289 220.81 183.767 220.989Q183.245 221.167 182.715 221.322Q182.186 221.476 181.649 221.606Q181.113 221.736 180.571 221.841Q180.03 221.946 179.484 222.026Q178.938 222.106 178.389 222.161L21.611 237.839Q21.062 237.894 20.5161 237.974Q19.9702 238.054 19.4285 238.159Q18.8869 238.264 18.3506 238.394Q17.8144 238.524 17.2847 238.678Q16.755 238.833 16.2329 239.011Q15.7109 239.19 15.1975 239.392Q14.6842 239.594 14.1808 239.82Q13.6773 240.046 13.1848 240.294Q12.6922 240.543 12.2116 240.814Q11.731 241.085 11.2633 241.378Q10.7957 241.671 10.342 241.985Q9.8883 242.299 9.44952 242.633Q9.01073 242.968 8.58777 243.322Q8.16482 243.676 7.7586 244.05Q7.35238 244.423 6.96374 244.815Q6.57511 245.206 6.20488 245.615Q5.83466 246.024 5.48362 246.45Q5.13259 246.876 4.80149 247.317Q4.47039 247.759 4.15992 248.215Q3.84946 248.671 3.56028 249.141Q3.2711 249.611 3.00382 250.093Q2.73655 250.576 2.49173 251.07Q2.24692 251.565 2.02509 252.07Q1.80326 252.575 1.60488 253.09Q1.4065 253.605 1.23199 254.128Q1.05749 254.652 0.907217 255.183Q0.756948 255.714 0.631235 256.251Q0.505522 256.788 0.404632 257.33Q0.303741 257.873 0.227886 258.419Q0.152031 258.966 0.101372 259.515Q0.0507128 260.065 0.0253564 260.616Q0 261.167 0 261.719L0 418.281Q0 418.833 0.0253564 419.384Q0.0507128 419.935 0.101372 420.485Q0.152031 421.034 0.227886 421.581Q0.303741 422.127 0.404632 422.67Q0.505522 423.212 0.631235 423.749Q0.756948 424.286 0.907217 424.817Q1.05749 425.348 1.23199 425.872Q1.4065 426.395 1.60488 426.91Q1.80326 427.425 2.02509 427.93Q2.24692 428.435 2.49173 428.93Q2.73655 429.424 3.00382 429.907Q3.2711 430.39 3.56028 430.859Q3.84946 431.329 4.15992 431.785Q4.47039 432.242 4.80149 432.683Q5.13259 433.124 5.48362 433.55Q5.83466 433.976 6.20488 434.385Q6.57511 434.794 6.96374 435.185Q7.35238 435.577 7.7586 435.95Q8.16482 436.324 8.58777 436.678Q9.01073 437.033 9.44952 437.367Q9.8883 437.701 10.342 438.015Q10.7957 438.329 11.2633 438.622Q11.731 438.915 12.2116 439.186Q12.6922 439.457 13.1848 439.706Q13.6773 439.954 14.1808 440.18Q14.6842 440.406 15.1975 440.608Q15.7109 440.81 16.2329 440.989Q16.755 441.168 17.2847 441.322Q17.8144 441.476 18.3506 441.606Q18.8869 441.736 19.4285 441.841Q19.9702 441.946 20.5161 442.026Q21.062 442.106 21.611 442.161L178.389 457.839Q178.938 457.894 179.484 457.974Q180.03 458.054 180.571 458.159Q181.113 458.264 181.649 458.394Q182.186 458.524 182.715 458.678Q183.245 458.833 183.767 459.011Q184.289 459.19 184.802 459.392Q185.316 459.594 185.819 459.82Q186.323 460.046 186.815 460.294Q187.308 460.543 187.788 460.814Q188.269 461.085 188.737 461.378Q189.204 461.671 189.658 461.985Q190.112 462.299 190.551 462.633Q190.989 462.968 191.412 463.322Q191.835 463.676 192.241 464.05Q192.648 464.423 193.036 464.815Q193.425 465.206 193.795 465.615Q194.165 466.024 194.516 466.45Q194.867 466.876 195.199 467.317Q195.53 467.759 195.84 468.215Q196.151 468.671 196.44 469.141Q196.729 469.611 196.996 470.093Q197.263 470.576 197.508 471.07Q197.753 471.565 197.975 472.07Q198.197 472.575 198.395 473.09Q198.594 473.605 198.768 474.128Q198.943 474.652 199.093 475.183Q199.243 475.714 199.369 476.251Q199.494 476.788 199.595 477.33Q199.696 477.873 199.772 478.419Q199.848 478.966 199.899 479.515Q199.949 480.065 199.975 480.616Q200 481.167 200 481.719L200 638.281Q200 638.833 199.975 639.384Q199.949 639.935 199.899 640.485Q199.848 641.034 199.772 641.581Q199.696 642.127 199.595 642.67Q199.494 643.212 199.369 643.749Q199.243 644.287 199.093 644.817Q198.943 645.348 198.768 645.872Q198.594 646.395 198.395 646.91Q198.197 647.425 197.975 647.93Q197.753 648.435 197.508 648.93Q197.263 649.424 196.996 649.907Q196.729 650.39 196.44 650.859Q196.151 651.329 195.84 651.786Q195.53 652.242 195.199 652.683Q194.867 653.124 194.516 653.55Q194.165 653.976 193.795 654.385Q193.425 654.794 193.036 655.185Q192.648 655.577 192.241 655.951Q191.835 656.324 191.412 656.678Q190.989 657.032 190.551 657.367Q190.112 657.701 189.658 658.015Q189.204 658.329 188.737 658.622Q188.269 658.915 187.788 659.186Q187.308 659.457 186.815 659.706Q186.323 659.954 185.819 660.18Q185.316 660.406 184.802 660.608Q184.289 660.81 183.767 660.989Q183.245 661.168 182.715 661.322Q182.186 661.476 181.649 661.606Q181.113 661.736 180.571 661.841Q180.03 661.946 179.484 662.026Q178.938 662.106 178.389 662.161L21.611 677.839Q21.062 677.894 20.5161 677.974Q19.9702 678.054 19.4285 678.159Q18.8869 678.264 18.3506 678.394Q17.8144 678.524 17.2847 678.678Q16.755 678.833 16.2329 679.011Q15.7108 679.19 15.1975 679.392Q14.6842 679.594 14.1808 679.82Q13.6773 680.046 13.1848 680.294Q12.6922 680.543 12.2116 680.814Q11.731 681.085 11.2633 681.378Q10.7957 681.671 10.342 681.985Q9.8883 682.299 9.44951 682.633Q9.01073 682.968 8.58777 683.322Q8.16482 683.676 7.7586 684.05Q7.35238 684.423 6.96374 684.815Q6.57511 685.206 6.20488 685.615Q5.83465 686.024 5.48362 686.45Q5.13259 686.876 4.80149 687.317Q4.47039 687.759 4.15992 688.215Q3.84945 688.671 3.56028 689.141Q3.2711 689.611 3.00382 690.093Q2.73654 690.576 2.49173 691.07Q2.24692 691.565 2.02509 692.07Q1.80326 692.575 1.60488 693.09Q1.4065 693.605 1.23199 694.128Q1.05749 694.652 0.907217 695.183Q0.756947 695.714 0.631235 696.251Q0.505522 696.788 0.404632 697.33Q0.303741 697.873 0.227886 698.419Q0.152031 698.966 0.101372 699.515Q0.0507128 700.065 0.0253564 700.616Q0 701.167 0 701.719L0 858.281Q0 858.833 0.0253564 859.384Q0.0507128 859.935 0.101372 860.485Q0.152031 861.034 0.227886 861.581Q0.303741 862.127 0.404632 862.67Q0.505522 863.212 0.631235 863.749Q0.756948 864.287 0.907217 864.817Q1.05749 865.348 1.23199 865.872Q1.4065 866.395 1.60488 866.91Q1.80326 867.425 2.02509 867.93Q2.24692 868.435 2.49173 868.93Q2.73655 869.424 3.00382 869.907Q3.2711 870.39 3.56028 870.859Q3.84946 871.329 4.15992 871.785Q4.47039 872.242 4.80149 872.683Q5.13259 873.124 5.48362 873.55Q5.83466 873.976 6.20488 874.385Q6.57511 874.794 6.96374 875.185Q7.35238 875.577 7.7586 875.95Q8.16482 876.324 8.58777 876.678Q9.01073 877.032 9.44952 877.367Q9.8883 877.701 10.342 878.016Q10.7957 878.329 11.2633 878.622Q11.731 878.915 12.2116 879.186Q12.6922 879.457 13.1848 879.706Q13.6773 879.954 14.1808 880.18Q14.6842 880.406 15.1975 880.608Q15.7109 880.81 16.2329 880.989Q16.755 881.167 17.2847 881.322Q17.8144 881.476 18.3506 881.606Q18.8869 881.736 19.4285 881.841Q19.9702 881.946 20.5161 882.026Q21.062 882.106 21.611 882.161L178.389 897.839Q178.938 897.894 179.484 897.974Q180.03 898.054 180.571 898.159Q181.113 898.264 181.649 898.394Q182.186 898.524 182.715 898.678Q183.245 898.833 183.767 899.011Q184.289 899.19 184.802 899.392Q185.316 899.594 185.819 899.82Q186.323 900.046 186.815 900.294Q187.308 900.543 187.788 900.814Q188.269 901.085 188.737 901.378Q189.204 901.671 189.658 901.985Q190.112 902.299 190.551 902.633Q190.989 902.968 191.412 903.322Q191.835 903.676 192.241 904.05Q192.648 904.423 193.036 904.815Q193.425 905.206 193.795 905.615Q194.165 906.025 194.516 906.45Q194.867 906.876 195.199 907.317Q195.53 907.759 195.84 908.215Q196.151 908.671 196.44 909.141Q196.729 909.611 196.996 910.093Q197.263 910.576 197.508 911.07Q197.753 911.565 197.975 912.07Q198.197 912.575 198.395 913.09Q198.594 913.605 198.768 914.128Q198.943 914.652 199.093 915.183Q199.243 915.714 199.369 916.251Q199.494 916.788 199.595 917.33Q199.696 917.873 199.772 918.419Q199.848 918.966 199.899 919.515Q199.949 920.065 199.975 920.616Q200 921.167 200 921.719L200 1078.28Q200 1078.83 199.975 1079.38Q199.949 1079.94 199.899 1080.48Q199.848 1081.03 199.772 1081.58Q199.696 1082.13 199.595 1082.67Q199.494 1083.21 199.369 1083.75Q199.243 1084.29 199.093 1084.82Q198.943 1085.35 198.768 1085.87Q198.594 1086.4 198.395 1086.91Q198.197 1087.42 197.975 1087.93Q197.753 1088.44 197.508 1088.93Q197.263 1089.42 196.996 1089.91Q196.729 1090.39 196.44 1090.86Q196.151 1091.33 195.84 1091.79Q195.53 1092.24 195.199 1092.68Q194.867 1093.12 194.516 1093.55Q194.165 1093.98 193.795 1094.38Q193.425 1094.79 193.036 1095.19Q192.648 1095.58 192.241 1095.95Q191.835 1096.32 191.412 1096.68Q190.989 1097.03 190.551 1097.37Q190.112 1097.7 189.658 1098.02Q189.204 1098.33 188.737 1098.62Q188.269 1098.92 187.788 1099.19Q187.308 1099.46 186.815 1099.71Q186.323 1099.95 185.819 1100.18Q185.316 1100.41 184.802 1100.61Q184.289 1100.81 183.767 1100.99Q183.245 1101.17 182.715 1101.32Q182.186 1101.48 181.649 1101.61Q181.113 1101.74 180.571 1101.84Q180.03 1101.95 179.484 1102.03Q178.938 1102.11 178.389 1102.16L0 1120" transform="matrix(-1 0 0 1 200 0)" id="path" fill="none" fill-rule="evenodd" stroke="url(#gradient_1)" stroke-width="1" />
    <path d="M3 0L17 14L0 24" transform="matrix(-1 0 0 1 109 877)" id="arrow-left" fill="none" fill-rule="evenodd" stroke="#545B5E" stroke-width="1" />
    <path d="M3 0L17 14L0 24" transform="translate(92 657)" id="arrow-right" fill="none" fill-rule="evenodd" stroke="#545B5E" stroke-width="1" />
    <path d="M3 0L17 14L0 24" transform="matrix(-1 0 0 1 109 437)" id="arrow-left" fill="none" fill-rule="evenodd" stroke="#545B5E" stroke-width="1" />
    <path d="M3 0L17 14L0 24" transform="translate(92 217)" id="arrow-right" fill="none" fill-rule="evenodd" stroke="#545B5E" stroke-width="1" />
  </g>
</svg>