<?xml version="1.0" encoding="utf-8"?>
<svg width="340px" height="1253px" viewBox="0 0 340 1253" version="1.1" xmlns:xlink="http://www.w3.org/1999/xlink" xmlns="http://www.w3.org/2000/svg">
  <desc>Created with Lunacy</desc>
  <defs>
    <linearGradient x1="0.5" y1="0" x2="0.5" y2="1" id="gradient_1">
      <stop offset="0" stop-color="#071013" />
      <stop offset="0.08963749" stop-color="#545B5E" />
      <stop offset="0.4993733" stop-color="#545B5E" />
      <stop offset="0.9105863" stop-color="#545B5E" />
      <stop offset="1" stop-color="#071013" />
    </linearGradient>
  </defs>
  <path d="M0 -2.68952e-13L317.813 37.5001Q318.355 37.564 318.892 37.6523Q319.43 37.7407 319.964 37.8534Q320.497 37.9661 321.024 38.103Q321.552 38.2398 322.073 38.4004Q322.594 38.561 323.107 38.7451Q323.62 38.9292 324.124 39.1364Q324.628 39.3436 325.122 39.5735Q325.617 39.8034 326.1 40.0555Q326.583 40.3076 327.055 40.5813Q327.526 40.8551 327.984 41.15Q328.443 41.4449 328.887 41.7603Q329.332 42.0757 329.762 42.4109Q330.191 42.7462 330.606 43.1006Q331.02 43.455 331.417 43.8279Q331.815 44.2007 332.195 44.5912Q332.575 44.9818 332.938 45.3891Q333.3 45.7965 333.643 46.2199Q333.986 46.6433 334.31 47.0819Q334.634 47.5204 334.937 47.9732Q335.241 48.426 335.523 48.8921Q335.806 49.3583 336.067 49.8367Q336.328 50.3152 336.567 50.805Q336.806 51.2948 337.023 51.795Q337.24 52.2951 337.433 52.8046Q337.627 53.3141 337.797 53.8319Q337.968 54.3496 338.114 54.8746Q338.261 55.3996 338.384 55.9307Q338.507 56.4617 338.605 56.9978Q338.704 57.534 338.778 58.074Q338.852 58.614 338.901 59.1568Q338.951 59.6996 338.975 60.2442Q339 60.7887 339 61.3337L339 1190.67Q339 1191.21 338.975 1191.76Q338.951 1192.3 338.901 1192.84Q338.852 1193.39 338.778 1193.93Q338.704 1194.47 338.605 1195Q338.507 1195.54 338.384 1196.07Q338.261 1196.6 338.114 1197.13Q337.968 1197.65 337.797 1198.17Q337.627 1198.69 337.433 1199.2Q337.24 1199.7 337.023 1200.2Q336.806 1200.71 336.567 1201.2Q336.328 1201.68 336.067 1202.16Q335.806 1202.64 335.523 1203.11Q335.241 1203.57 334.937 1204.03Q334.634 1204.48 334.31 1204.92Q333.986 1205.36 333.643 1205.78Q333.3 1206.2 332.938 1206.61Q332.575 1207.02 332.195 1207.41Q331.815 1207.8 331.417 1208.17Q331.02 1208.54 330.606 1208.9Q330.191 1209.25 329.762 1209.59Q329.332 1209.92 328.887 1210.24Q328.443 1210.56 327.984 1210.85Q327.526 1211.14 327.055 1211.42Q326.583 1211.69 326.1 1211.94Q325.617 1212.2 325.122 1212.43Q324.628 1212.66 324.124 1212.86Q323.62 1213.07 323.107 1213.25Q322.594 1213.44 322.073 1213.6Q321.552 1213.76 321.024 1213.9Q320.497 1214.03 319.964 1214.15Q319.43 1214.26 318.892 1214.35Q318.355 1214.44 317.813 1214.5L0 1252" transform="matrix(-1 0 0 1 339.5 0.5)" id="path-copy" fill="none" fill-rule="evenodd" stroke="url(#gradient_1)" stroke-width="1" />
</svg>