<?xml version="1.0" encoding="utf-8"?>
<svg width="32px" height="32px" viewBox="0 0 32 32" version="1.1" xmlns:xlink="http://www.w3.org/1999/xlink" xmlns="http://www.w3.org/2000/svg">
  <desc>Created with Lunacy</desc>
  <g id="ansible">
    <path d="M32 15.9982C31.9995 24.8349 24.8358 31.9982 15.9991 31.9982C7.16286 31.9982 0 24.8354 0 15.9991C0 7.16286 7.16375 0 15.9991 0C24.8345 0 31.9982 7.16375 31.9982 16.0009" id="Path" fill="#1A1918" fill-rule="evenodd" stroke="none" />
    <path d="M9.02099 0.678054L15.4114 16.0562L15.4105 16.0562C15.4804 16.2446 15.5199 16.4195 15.5199 16.5298C15.5199 17.207 14.9728 17.676 14.3468 17.676C14.0346 17.676 13.7943 17.5541 13.4606 17.285L5.1751 10.5915L2.3992 17.546L0 17.546L7.01373 0.678054C7.1967 0.234987 7.57878 0 8.03082 0C8.48285 0 8.83892 0.234987 9.02099 0.678054ZM12.1861 13.6947L8.03171 3.44139L5.91145 8.75282L12.1861 13.6947Z" transform="translate(8.348957 6.3643804)" id="Shape" fill="#FFFFFF" fill-rule="evenodd" stroke="none" />
  </g>
</svg>