<?xml version="1.0" encoding="utf-8"?>
<svg width="24px" height="32px" viewBox="0 0 24 32" version="1.1" xmlns:xlink="http://www.w3.org/1999/xlink" xmlns="http://www.w3.org/2000/svg">
  <desc>Created with Lunacy</desc>
  <g id="databases">
    <g id="Group" transform="translate(0.78431374 4.7058825)">
      <path d="M21.7929 0L21.7929 7.52392C21.7929 9.03608 19.4439 10.3482 15.9953 11.0094C14.3137 11.3212 12.6067 11.4743 10.8965 11.4667C4.87765 11.4667 0 9.70275 0 7.52392L0 0C0 2.17961 4.87765 3.94353 10.8965 3.94353C16.9153 3.94353 21.7929 2.17961 21.7929 0Z" transform="translate(0.044784315 14.964705)" id="Path" fill="#E6EAEB" fill-rule="evenodd" stroke="none" />
      <path d="M21.7929 7.31608L21.7929 7.47137C21.7929 9.65098 16.9153 11.4149 10.8965 11.4149C4.87765 11.4149 0 9.65098 0 7.47137L0 0C0 2.17882 4.87765 3.94353 10.8965 3.94353C16.9153 3.94353 21.7929 2.17882 21.7929 0L21.7929 7.31608Z" transform="translate(0.044784315 7.4933333)" id="Path" fill="#E6EAEB" fill-rule="evenodd" stroke="none" />
      <path d="M21.7929 0L21.7929 7.47216C21.7929 9.65098 16.9153 11.4157 10.8965 11.4157C4.87765 11.4157 0 9.65098 0 7.47216L0 0C0 2.17804 4.87843 3.94353 10.8965 3.94353C16.9145 3.94353 21.7929 2.17804 21.7929 0L21.7929 0Z" transform="translate(0.044784315 0.02117647)" id="Path" fill="#E6EAEB" fill-rule="evenodd" stroke="none" />
    </g>
    <path d="M10.8965 0C16.9145 0 21.7929 1.76549 21.7929 3.94274C21.7929 6.12 16.9145 7.88627 10.8965 7.88627C4.87843 7.88627 0 6.12078 0 3.94274C0 1.76471 4.87843 0 10.8965 0Z" transform="translate(0.82909805 0.78431374)" id="Path" fill="#545B5E" fill-rule="evenodd" stroke="none" />
    <g id="Group">
      <path d="M19.6609 1.20173C17.5194 0.426745 14.6869 0 11.6877 0C8.68847 0 5.85388 0.426745 3.71231 1.20173C0.646902 2.3109 0 3.73106 0 4.72706L0 27.1945C0 28.1906 0.646196 29.6115 3.71145 30.7205C5.85263 31.4951 8.68494 31.9216 11.6849 31.9216C13.4457 31.928 15.2033 31.7702 16.9348 31.4503C21.0239 30.6667 23.3725 29.1152 23.3725 27.1945L23.3725 4.72706C23.3725 3.73106 22.7264 2.3109 19.6609 1.20173ZM20.5819 28.5804C19.6373 29.1366 18.2729 29.5962 16.6384 29.9096C15.0053 30.2109 13.3476 30.3593 11.687 30.3528C8.86439 30.3528 6.21961 29.9594 4.24541 29.2453C2.27451 28.5322 1.56863 27.7184 1.56863 27.1945L1.56863 22.1426C2.23718 22.5802 2.95678 22.9344 3.71137 23.1973C5.85255 23.9718 8.68486 24.3984 11.6849 24.3984C14.685 24.3984 17.5196 23.9718 19.6605 23.1973C20.4153 22.9344 21.1351 22.5802 21.8039 22.1426L21.8039 27.1945C21.8039 27.6191 21.3569 28.1242 20.5819 28.5804L20.5819 28.5804ZM21.8039 19.6706C21.8039 20.1947 21.0988 21.0089 19.1275 21.7222C17.1534 22.4365 14.5104 22.8298 11.6877 22.8298C8.86502 22.8298 6.21984 22.4365 4.2458 21.7222C2.27451 21.0089 1.56863 20.1947 1.56863 19.6706L1.56863 14.6709C2.23718 15.1085 2.95678 15.4627 3.71137 15.7255C5.85255 16.5003 8.68502 16.9271 11.6849 16.9271C14.6849 16.9271 17.5195 16.5003 19.6606 15.7255C20.4153 15.4626 21.1351 15.1085 21.8039 14.6709L21.8039 19.6706ZM19.1275 14.2505C17.1529 14.9647 14.5098 15.3584 11.6877 15.3584C8.86557 15.3584 6.22008 14.9649 4.2458 14.2505C2.27451 13.5373 1.56863 12.7231 1.56863 12.1992L1.56863 7.19827C2.23725 7.63592 2.95694 7.9902 3.71161 8.2531C5.85278 9.02808 8.68557 9.4549 11.6849 9.4549C14.6843 9.4549 17.5188 9.02808 19.6602 8.2531C20.4151 7.9902 21.1351 7.63592 21.8039 7.19827L21.8039 12.1992C21.8039 12.7231 21.0988 13.5373 19.1275 14.2505L19.1275 14.2505ZM19.1244 6.77804C17.1497 7.49271 14.5082 7.88627 11.6863 7.88627C8.86439 7.88627 6.22282 7.49271 4.24816 6.77804C2.27655 6.06431 1.57412 5.25075 1.57412 4.72706C1.57412 4.20337 2.27655 3.39012 4.24816 2.67671C6.2229 1.9622 8.86447 1.56863 11.6863 1.56863C14.5081 1.56863 17.1496 1.9622 19.1244 2.67671C21.096 3.39043 21.7984 4.20361 21.7984 4.72706C21.7984 5.25051 21.096 6.06455 19.1244 6.77804Z" transform="translate(0.039294116 0)" id="Shape" fill="#071013" stroke="none" />
      <path d="M4.39216 0L0.784314 0C0.351137 0 0 0.351137 0 0.784314C0 1.21749 0.351137 1.56863 0.784314 1.56863L4.39216 1.56863C4.82533 1.56863 5.17647 1.21749 5.17647 0.784314C5.17647 0.351137 4.82533 0 4.39216 0Z" transform="translate(9.137333 11.490196)" id="Path" fill="#F8333C" fill-rule="evenodd" stroke="none" />
      <path d="M4.39216 0L0.784314 0C0.351137 0 0 0.351137 0 0.784314C0 1.21749 0.351137 1.56863 0.784314 1.56863L4.39216 1.56863C4.82533 1.56863 5.17647 1.21749 5.17647 0.784314C5.17647 0.351137 4.82533 0 4.39216 0Z" transform="translate(9.137333 18.862745)" id="Path" fill="#F8333C" fill-rule="evenodd" stroke="none" />
      <path d="M4.39216 0L0.784314 0C0.351137 0 0 0.351137 0 0.784314C0 1.21749 0.351137 1.56863 0.784314 1.56863L4.39216 1.56863C4.82533 1.56863 5.17647 1.21749 5.17647 0.784314C5.17647 0.351137 4.82533 0 4.39216 0Z" transform="translate(9.137333 26.470589)" id="Path" fill="#F8333C" fill-rule="evenodd" stroke="none" />
    </g>
  </g>
</svg>