<?xml version="1.0" encoding="utf-8"?>
<svg width="387px" height="201px" viewBox="0 0 387 201" version="1.1" xmlns:xlink="http://www.w3.org/1999/xlink" xmlns="http://www.w3.org/2000/svg">
  <desc>Created with Lunacy</desc>
  <g id="devops-pic">
    <path d="M84.5852 0L76.7305 40.4068L105.355 45.973C72.5822 64.6105 31.5266 63.2475 0 41.9036L0.000980883 4.82658L35.9451 4.82723C51.6619 11.686 70.1851 10.077 84.5852 0Z" transform="translate(231.03886 141.00615)" id="Path" fill="#F8333C" fill-rule="evenodd" stroke="none" />
    <path d="M31.2935 0C46.4565 12.8382 67.4616 15.2026 84.7765 7.09328L125.094 7.79639L124.514 41.0927C87.8095 69.3824 35.9624 68.6889 0 39.0122L37.0221 32.483L31.2935 0Z" transform="translate(36.438698 138.19774)" id="Path" fill="#F8333C" fill-opacity="0.2" fill-rule="evenodd" stroke="none" />
    <path d="M53.009 0C84.1055 39.2522 81.5197 96.4478 45.2516 132.716C40.2074 137.76 34.7583 142.153 29.0091 145.894L0 140.255L7.98627 99.1742C8.63481 98.5897 9.27174 97.9851 9.89626 97.3606C28.7259 78.5309 29.3976 48.4193 11.9113 28.7848L43.0587 37.1318L53.009 0Z" transform="translate(312.45908 37.99474)" id="Path" fill="#F8333C" fill-rule="evenodd" stroke="none" />
    <path d="M57.6587 34.8159C60.1309 37.288 62.7975 39.4472 65.6094 41.2934L33.0539 41.2933L33.0529 79.5156C29.325 76.7137 25.749 73.6167 22.3571 70.2247C14.8689 62.7818 8.06896 54.7155 0.143683 43.9919L0 44.1941C3.03523 39.9093 7.01506 34.0933 13.0022 25.237L13.289 24.8127C28.2893 2.61905 29.007 1.54943 30.2191 0C41.7817 16.7674 49.6082 26.8139 57.6587 34.8159Z" transform="translate(193.98592 100.53947)" id="Path" fill="#F8333C" fill-opacity="0.2" fill-rule="evenodd" stroke="none" />
    <path d="M21.6006 0L23.747 40.9303L55.4994 39.2655C46.2325 57.3215 48.6771 79.8365 62.8333 95.5398L68.827 129.528L32.5549 135.926C31.4488 134.915 30.3599 133.873 29.2893 132.803C-7.00549 96.5078 -9.56838 39.2547 21.6006 0Z" transform="translate(-2.1316282E-14 37.908047)" id="Path" fill="#F8333C" fill-opacity="0.2" fill-rule="evenodd" stroke="none" />
    <path d="M7.375 23.4375L0 23.4375L0 0L7.375 0C11.9792 0 15.5156 1.01822 17.9844 3.05469C20.4531 5.09116 21.6875 7.96873 21.6875 11.6875C21.6875 15.4167 20.4531 18.3073 17.9844 20.3594C15.5156 22.4115 11.9792 23.4375 7.375 23.4375ZM7.48438 19.2188C10.5052 19.2188 12.8203 18.5599 14.4297 17.2422C16.0391 15.9245 16.8438 14.0729 16.8438 11.6875C16.8438 9.31249 16.0391 7.47396 14.4297 6.17188C12.8203 4.86979 10.5052 4.21875 7.48438 4.21875L4.78125 4.21875L4.78125 19.2188L7.48438 19.2188ZM27.6406 16.9375C27.9219 17.8021 28.4401 18.5052 29.1953 19.0469C29.9505 19.5885 30.8333 19.8594 31.8438 19.8594C32.9271 19.8594 33.8255 19.6849 34.5391 19.3359C35.2526 18.987 35.901 18.5365 36.4844 17.9844L39.2031 21.2344C37.9948 22.1823 36.7995 22.8333 35.6172 23.1875C34.4349 23.5417 33.3021 23.7188 32.2188 23.7188C30.4896 23.7188 28.9635 23.3672 27.6406 22.6641C26.3177 21.9609 25.2813 20.9922 24.5313 19.7578C23.7812 18.5234 23.4063 17.1198 23.4063 15.5469C23.4063 13.9948 23.7656 12.612 24.4844 11.3984C25.2031 10.1849 26.1849 9.22657 27.4297 8.52344C28.6745 7.82031 30.0885 7.46875 31.6719 7.46875C33.2448 7.46875 34.6432 7.8177 35.8672 8.51563C37.0912 9.21354 38.0573 10.1719 38.7656 11.3906C39.474 12.6094 39.8281 14.0052 39.8281 15.5781L39.8281 16.9375L27.6406 16.9375ZM35.2031 14.4375C34.9844 13.5208 34.5365 12.7813 33.8594 12.2188C33.1823 11.6562 32.3698 11.375 31.4219 11.375C30.4635 11.375 29.6328 11.6615 28.9297 12.2344C28.2266 12.8073 27.7656 13.5417 27.5469 14.4375L35.2031 14.4375ZM40.6094 7.78125L45.5 7.78125L48.3281 15.3906C48.474 15.7865 48.638 16.3646 48.8203 17.125C49.0026 17.8854 49.1458 18.5729 49.25 19.1875L49.3125 19.1875C49.4375 18.5729 49.5964 17.8906 49.7891 17.1406C49.9818 16.3906 50.151 15.8073 50.2969 15.3906L52.9063 7.78125L57.6406 7.78125L51.4688 23.4063L47.0938 23.4063L40.6094 7.78125Z" transform="translate(73.03125 86.59375)" id="Dev" fill="#FFFFFF" stroke="none" />
    <path d="M0 12.1875C0 10.4271 0.30208 8.8047 0.90625 7.32031C1.51042 5.83593 2.35937 4.54688 3.45313 3.45313C4.54688 2.35937 5.83593 1.51042 7.32031 0.90625C8.8047 0.30208 10.4271 0 12.1875 0C13.9479 0 15.5703 0.30208 17.0547 0.90625C18.5391 1.51042 19.8281 2.35937 20.9219 3.45313C22.0156 4.54688 22.8646 5.83593 23.4688 7.32031C24.0729 8.8047 24.375 10.4271 24.375 12.1875C24.375 13.9479 24.0729 15.5703 23.4688 17.0547C22.8646 18.5391 22.0156 19.8281 20.9219 20.9219C19.8281 22.0156 18.5391 22.8646 17.0547 23.4688C15.5703 24.0729 13.9479 24.375 12.1875 24.375C10.4271 24.375 8.8047 24.0729 7.32031 23.4688C5.83593 22.8646 4.54688 22.0156 3.45313 20.9219C2.35937 19.8281 1.51042 18.5391 0.90625 17.0547C0.30208 15.5703 0 13.9479 0 12.1875ZM4.84375 12.1875C4.84375 13.7188 5.16146 15.0833 5.79688 16.2813C6.43229 17.4792 7.30208 18.4245 8.40625 19.1172C9.51042 19.8099 10.7708 20.1563 12.1875 20.1563C13.6042 20.1563 14.8646 19.8099 15.9688 19.1172C17.0729 18.4245 17.9427 17.4792 18.5781 16.2813C19.2135 15.0833 19.5313 13.7188 19.5313 12.1875C19.5313 10.6562 19.2135 9.28907 18.5781 8.08594C17.9427 6.88281 17.0729 5.9375 15.9688 5.25C14.8646 4.5625 13.6042 4.21875 12.1875 4.21875C10.7708 4.21875 9.51042 4.5625 8.40625 5.25C7.30208 5.9375 6.43229 6.88281 5.79688 8.08594C5.16146 9.28907 4.84375 10.6562 4.84375 12.1875ZM27.1875 8.28125L31.4375 8.28125L31.5469 9.96875C32.2031 9.33333 32.9687 8.84115 33.8438 8.49219C34.7188 8.14323 35.6615 7.96875 36.6719 7.96875C38.1406 7.96875 39.4479 8.32031 40.5938 9.02344C41.7396 9.72657 42.6406 10.6901 43.2969 11.9141C43.9531 13.138 44.2813 14.5312 44.2813 16.0938C44.2813 17.6563 43.9531 19.0495 43.2969 20.2734C42.6406 21.4974 41.7396 22.4609 40.5938 23.1641C39.4479 23.8672 38.1406 24.2188 36.6719 24.2188C35.6927 24.2188 34.7813 24.0547 33.9375 23.7266C33.0937 23.3984 32.3438 22.9427 31.6875 22.3594L31.6875 31.7188L27.1875 31.7188L27.1875 8.28125ZM35.6563 11.875C34.5104 11.875 33.5625 12.276 32.8125 13.0781C32.0625 13.8802 31.6875 14.8854 31.6875 16.0938C31.6875 17.3021 32.0625 18.3073 32.8125 19.1094C33.5625 19.9115 34.5104 20.3125 35.6563 20.3125C36.8021 20.3125 37.75 19.9115 38.5 19.1094C39.25 18.3073 39.625 17.3021 39.625 16.0938C39.625 14.8854 39.25 13.8802 38.5 13.0781C37.75 12.276 36.8021 11.875 35.6563 11.875ZM46.3125 21.9219L48.4375 18.5313C49.3333 19.125 50.1589 19.5964 50.9141 19.9453C51.6693 20.2943 52.3437 20.4688 52.9375 20.4688C53.3958 20.4688 53.7656 20.3646 54.0469 20.1563C54.3281 19.9479 54.4688 19.6823 54.4688 19.3594C54.4688 18.8906 54.2057 18.5104 53.6797 18.2188C53.1536 17.9271 52.5469 17.6406 51.8594 17.3594C51.1302 17.0573 50.3984 16.7161 49.6641 16.3359C48.9297 15.9557 48.3151 15.4635 47.8203 14.8594C47.3255 14.2552 47.0781 13.474 47.0781 12.5156C47.0781 11.1927 47.6016 10.1042 48.6484 9.25C49.6953 8.39583 51.1771 7.96875 53.0938 7.96875C54.0313 7.96875 55.0182 8.08594 56.0547 8.32031C57.0912 8.55469 58.0365 8.93229 58.8906 9.45313L56.9063 12.875C56.4479 12.5729 55.8516 12.3047 55.1172 12.0703C54.3828 11.8359 53.7604 11.7188 53.25 11.7188C52.9583 11.7188 52.638 11.7786 52.2891 11.8984C51.9401 12.0182 51.7656 12.25 51.7656 12.5938C51.7656 12.9792 52.0078 13.2969 52.4922 13.5469C52.9766 13.7969 53.5521 14.0521 54.2188 14.3125C54.9375 14.5938 55.6771 14.9245 56.4375 15.3047C57.1979 15.6849 57.8411 16.1901 58.3672 16.8203C58.8932 17.4505 59.1563 18.276 59.1563 19.2969C59.1563 20.3177 58.875 21.1979 58.3125 21.9375C57.75 22.6771 57 23.2422 56.0625 23.6328C55.125 24.0234 54.0885 24.2188 52.9531 24.2188C51.8802 24.2188 50.7682 24.0313 49.6172 23.6563C48.4661 23.2812 47.3646 22.7031 46.3125 21.9219Z" transform="translate(254.78125 86.09375)" id="Ops" fill="#FFFFFF" stroke="none" />
    <path d="M38.3407 0C41.2204 2.30388 44.0023 4.79011 46.6708 7.45869C54.364 15.1518 60.9151 22.811 68.7217 33.2984L68.63 33.4173C67.1313 35.367 65.5002 37.7603 51.5104 58.3223L51.2892 58.6474C45.421 67.2713 41.5569 72.8966 38.5827 77.1105C26.9834 60.4078 19.6829 51.1814 11.3155 42.814C7.87594 39.3745 4.05994 36.5408 0.000123602 34.313L0 0.00210477L38.3407 0Z" transform="translate(124.03985 21.830633)" id="Path" fill="#F8333C" fill-opacity="0.2" fill-rule="evenodd" stroke="none" />
    <path d="M131.655 17.8322L94.67 17.8327L94.6698 54.1769C76.3669 46.1782 54.252 49.6675 39.2748 64.6447C36.6715 67.248 34.4153 70.0669 32.5061 73.044L2.16233 74.6345L0 33.4349C1.25959 32.0252 2.56607 30.6427 3.91946 29.2893C38.6815 -5.47271 92.6691 -9.29175 131.655 17.8322Z" transform="translate(25.369858 7.4606987E-13)" id="Path" fill="#F8333C" fill-opacity="0.2" fill-rule="evenodd" stroke="none" />
    <path d="M140.359 29.2893C141.966 30.897 143.508 32.5457 144.983 34.2322L135.337 70.2276L100.963 61.0151C81.3284 45.2046 52.5213 46.416 34.2675 64.6698C33.2178 65.7165 32.1885 66.7692 31.1714 67.8378L38.9816 38.6893L0 28.244L0.116125 28.1295C39.2537 -9.7592 101.697 -9.37258 140.359 29.2893Z" transform="translate(217.352 4.2632564E-14)" id="Path" fill="#F8333C" fill-rule="evenodd" stroke="none" />
    <path d="M48.1189 49.5289L48.3402 49.2038C62.0274 29.0864 63.8748 26.3756 65.3444 24.4518C65.3462 24.4547 65.3485 24.4578 65.3507 24.4608L65.7485 23.929C65.7842 23.8832 65.8204 23.837 65.857 23.79L65.8531 23.7873L66.1111 23.4446C72.9286 14.3684 79.0689 7.14957 86.0526 0L123.398 10.0061L114.596 42.8553C109.015 49.3747 103.322 56.9885 96.1116 67.4072L95.6938 68.0127C94.1694 69.9535 94.7051 69.1704 78.4096 93.2805L78.1228 93.7048C72.2866 102.338 68.3592 108.08 65.3579 112.326L65.4693 112.174C57.4754 123.099 50.6135 131.259 42.6738 139.199C40.8259 141.047 38.9237 142.807 36.9723 144.48L37.5653 110.553L0 109.899C2.57984 108.148 5.03231 106.13 7.31847 103.844C15.8536 95.3085 23.4466 85.5214 35.0072 68.5662L34.9772 68.6077C38.0126 64.3227 41.9641 58.574 48.1189 49.5289Z" transform="translate(128.03687 31.51169)" id="Path" fill="#F8333C" fill-rule="evenodd" stroke="none" />
    <path d="M0 0.3125L3.69531 0.3125C4.96094 0.3125 5.95052 0.60807 6.66406 1.19922C7.37761 1.79037 7.73438 2.60937 7.73438 3.65625C7.73438 4.46875 7.51823 5.14843 7.08594 5.69531C6.65364 6.24219 6.04167 6.62239 5.25 6.83594L8.25 12.0313L6.66406 12.0313L3.78125 7.03125L1.36719 7.03125L1.36719 12.0313L0 12.0313L0 0.3125ZM3.41406 5.78125C4.36198 5.78125 5.08463 5.60156 5.58203 5.24219C6.07943 4.88281 6.32813 4.35677 6.32813 3.66406C6.32813 2.97656 6.08073 2.45443 5.58594 2.09766C5.09114 1.74088 4.36719 1.5625 3.41406 1.5625L1.36719 1.5625L1.36719 5.78125L3.41406 5.78125ZM17.4844 8.11719L17.4844 8.64063L10.8594 8.64063C10.9896 9.33334 11.3242 9.90234 11.8633 10.3477C12.4023 10.793 13.0521 11.0156 13.8125 11.0156C14.2344 11.0156 14.6797 10.9336 15.1484 10.7695C15.6172 10.6055 16.0443 10.3411 16.4297 9.97656L17.1875 10.9453C16.6198 11.4193 16.0534 11.7448 15.4883 11.9219C14.9232 12.099 14.3776 12.1875 13.8516 12.1875C13.0078 12.1875 12.2578 12.0117 11.6016 11.6602C10.9453 11.3086 10.431 10.8229 10.0586 10.2031C9.6862 9.58333 9.5 8.87761 9.5 8.08594C9.5 7.3151 9.67448 6.62631 10.0234 6.01953C10.3724 5.41276 10.8516 4.9349 11.4609 4.58594C12.0703 4.23698 12.7604 4.0625 13.5313 4.0625C14.3021 4.0625 14.9844 4.23698 15.5781 4.58594C16.1719 4.9349 16.638 5.41406 16.9766 6.02344C17.3151 6.63282 17.4844 7.33073 17.4844 8.11719ZM10.8438 7.54688L16.1406 7.54688C16.026 6.86458 15.7318 6.3086 15.2578 5.87891C14.7839 5.44922 14.2057 5.23438 13.5234 5.23438C12.8307 5.23438 12.2396 5.45182 11.75 5.88672C11.2604 6.32162 10.9583 6.875 10.8438 7.54688ZM20.7656 0L20.7656 12.0313L19.4375 12.0313L19.4375 0L20.7656 0ZM30.7031 8.11719L30.7031 8.64063L24.0781 8.64063C24.2083 9.33334 24.543 9.90234 25.082 10.3477C25.6211 10.793 26.2708 11.0156 27.0313 11.0156C27.4531 11.0156 27.8984 10.9336 28.3672 10.7695C28.8359 10.6055 29.263 10.3411 29.6484 9.97656L30.4063 10.9453C29.8385 11.4193 29.2721 11.7448 28.707 11.9219C28.1419 12.099 27.5964 12.1875 27.0703 12.1875C26.2266 12.1875 25.4766 12.0117 24.8203 11.6602C24.1641 11.3086 23.6497 10.8229 23.2773 10.2031C22.9049 9.58333 22.7188 8.87761 22.7188 8.08594C22.7188 7.3151 22.8932 6.62631 23.2422 6.01953C23.5911 5.41276 24.0703 4.9349 24.6797 4.58594C25.2891 4.23698 25.9792 4.0625 26.75 4.0625C27.5208 4.0625 28.2031 4.23698 28.7969 4.58594C29.3906 4.9349 29.8568 5.41406 30.1953 6.02344C30.5339 6.63282 30.7031 7.33073 30.7031 8.11719ZM24.0625 7.54688L29.3594 7.54688C29.2448 6.86458 28.9505 6.3086 28.4766 5.87891C28.0026 5.44922 27.4245 5.23438 26.7422 5.23438C26.0495 5.23438 25.4583 5.45182 24.9688 5.88672C24.4792 6.32162 24.1771 6.875 24.0625 7.54688ZM32.4063 9.70313C32.4063 8.92187 32.7096 8.30078 33.3164 7.83984C33.9232 7.3789 34.7422 7.14844 35.7734 7.14844C36.4714 7.14844 37.1562 7.25521 37.8281 7.46875L37.8281 7.375C37.8281 6.70833 37.6367 6.1849 37.2539 5.80469C36.8711 5.42448 36.3464 5.23438 35.6797 5.23438C35.0078 5.23438 34.2786 5.45833 33.4922 5.90625L33.0234 4.82813C33.5495 4.55208 34.026 4.35547 34.4531 4.23828C34.8802 4.12109 35.3385 4.0625 35.8281 4.0625C36.8281 4.0625 37.6263 4.36718 38.2227 4.97656C38.819 5.58594 39.1172 6.40104 39.1172 7.42188L39.1172 12.0313L37.9531 12.0313L37.8828 10.875C37.6224 11.2865 37.2682 11.6081 36.8203 11.8398C36.3724 12.0716 35.8542 12.1875 35.2656 12.1875C34.4167 12.1875 33.7279 11.9583 33.1992 11.5C32.6706 11.0417 32.4063 10.4427 32.4063 9.70313ZM35.8906 8.32031C35.2135 8.32031 34.6849 8.44141 34.3047 8.68359C33.9245 8.92578 33.7344 9.26562 33.7344 9.70313C33.7344 10.099 33.8867 10.4167 34.1914 10.6563C34.4961 10.8958 34.901 11.0156 35.4063 11.0156C35.8646 11.0156 36.276 10.9193 36.6406 10.7266C37.0052 10.5339 37.2943 10.2734 37.5078 9.94531C37.7214 9.61719 37.8281 9.25 37.8281 8.84375L37.8281 8.63281C37.1927 8.42448 36.5469 8.32031 35.8906 8.32031ZM40.9922 11.2734L41.6016 10.1875C42.2266 10.7396 42.8958 11.0156 43.6094 11.0156C44.0313 11.0156 44.3594 10.9167 44.5938 10.7188C44.8281 10.5208 44.9453 10.263 44.9453 9.94531C44.9453 9.54427 44.7799 9.23568 44.4492 9.01953C44.1185 8.80338 43.7422 8.60156 43.3203 8.41406C42.9922 8.26302 42.6693 8.09896 42.3516 7.92188C42.0339 7.74479 41.7721 7.52083 41.5664 7.25C41.3607 6.97917 41.2578 6.62761 41.2578 6.19531C41.2578 5.55989 41.4909 5.04557 41.957 4.65234C42.4232 4.25911 43.026 4.0625 43.7656 4.0625C44.151 4.0625 44.5365 4.11588 44.9219 4.22266C45.3073 4.32943 45.651 4.48177 45.9531 4.67969L45.4063 5.67969C45.099 5.51823 44.8255 5.40365 44.5859 5.33594C44.3464 5.26823 44.0964 5.23438 43.8359 5.23438C43.4349 5.23438 43.1198 5.3151 42.8906 5.47656C42.6615 5.63802 42.5469 5.85156 42.5469 6.11719C42.5469 6.4349 42.6966 6.69141 42.9961 6.88672C43.2956 7.08203 43.6432 7.27083 44.0391 7.45313C44.3828 7.60938 44.7227 7.78516 45.0586 7.98047C45.3945 8.17578 45.6745 8.42187 45.8984 8.71875C46.1224 9.01563 46.2344 9.39583 46.2344 9.85938C46.2344 10.3177 46.1172 10.7214 45.8828 11.0703C45.6484 11.4193 45.3294 11.6927 44.9258 11.8906C44.5221 12.0885 44.0651 12.1875 43.5547 12.1875C43.0964 12.1875 42.6432 12.1068 42.1953 11.9453C41.7474 11.7839 41.3464 11.5599 40.9922 11.2734ZM55.7031 8.11719L55.7031 8.64063L49.0781 8.64063C49.2083 9.33334 49.543 9.90234 50.082 10.3477C50.6211 10.793 51.2708 11.0156 52.0313 11.0156C52.4531 11.0156 52.8984 10.9336 53.3672 10.7695C53.8359 10.6055 54.263 10.3411 54.6484 9.97656L55.4063 10.9453C54.8385 11.4193 54.2721 11.7448 53.707 11.9219C53.1419 12.099 52.5964 12.1875 52.0703 12.1875C51.2266 12.1875 50.4766 12.0117 49.8203 11.6602C49.1641 11.3086 48.6497 10.8229 48.2773 10.2031C47.9049 9.58333 47.7188 8.87761 47.7188 8.08594C47.7188 7.3151 47.8932 6.62631 48.2422 6.01953C48.5911 5.41276 49.0703 4.9349 49.6797 4.58594C50.2891 4.23698 50.9792 4.0625 51.75 4.0625C52.5208 4.0625 53.2031 4.23698 53.7969 4.58594C54.3906 4.9349 54.8568 5.41406 55.1953 6.02344C55.5339 6.63282 55.7031 7.33073 55.7031 8.11719ZM49.0625 7.54688L54.3594 7.54688C54.2448 6.86458 53.9505 6.3086 53.4766 5.87891C53.0026 5.44922 52.4245 5.23438 51.7422 5.23438C51.0495 5.23438 50.4583 5.45182 49.9688 5.88672C49.4792 6.32162 49.1771 6.875 49.0625 7.54688Z" transform="matrix(0.57357645 -0.81915206 0.81915206 0.57357645 172.34807 116.79151)" id="Release" fill="#FFFFFF" stroke="none" />
    <path d="M3.1875 12.0469L0 12.0469L0 0.328125L3.1875 0.328125C5.48959 0.328125 7.25781 0.837234 8.49219 1.85547C9.72657 2.8737 10.3438 4.31249 10.3438 6.17188C10.3438 8.03647 9.72657 9.48177 8.49219 10.5078C7.25781 11.5339 5.48959 12.0469 3.1875 12.0469ZM3.1875 10.7969C5.04168 10.7969 6.46354 10.3932 7.45313 9.58594C8.44271 8.77864 8.9375 7.64063 8.9375 6.17188C8.9375 4.70833 8.44271 3.57683 7.45313 2.77734C6.46354 1.97786 5.04168 1.57813 3.1875 1.57813L1.36719 1.57813L1.36719 10.7969L3.1875 10.7969ZM19.6563 8.11719L19.6563 8.64063L13.0313 8.64063C13.1615 9.33334 13.4961 9.90234 14.0352 10.3477C14.5742 10.793 15.224 11.0156 15.9844 11.0156C16.4063 11.0156 16.8516 10.9336 17.3203 10.7695C17.7891 10.6055 18.2161 10.3411 18.6016 9.97656L19.3594 10.9453C18.7917 11.4193 18.2253 11.7448 17.6602 11.9219C17.095 12.099 16.5495 12.1875 16.0234 12.1875C15.1797 12.1875 14.4297 12.0117 13.7734 11.6602C13.1172 11.3086 12.6029 10.8229 12.2305 10.2031C11.8581 9.58333 11.6719 8.87761 11.6719 8.08594C11.6719 7.3151 11.8464 6.62631 12.1953 6.01953C12.5443 5.41276 13.0234 4.9349 13.6328 4.58594C14.2422 4.23698 14.9323 4.0625 15.7031 4.0625C16.474 4.0625 17.1562 4.23698 17.75 4.58594C18.3438 4.9349 18.8099 5.41406 19.1484 6.02344C19.487 6.63282 19.6563 7.33073 19.6563 8.11719ZM13.0156 7.54688L18.3125 7.54688C18.1979 6.86458 17.9036 6.3086 17.4297 5.87891C16.9557 5.44922 16.3776 5.23438 15.6953 5.23438C15.0026 5.23438 14.4115 5.45182 13.9219 5.88672C13.4323 6.32162 13.1302 6.875 13.0156 7.54688ZM22.7734 4.21875L22.8438 5.30469C23.1979 4.91927 23.6237 4.61589 24.1211 4.39453C24.6185 4.17318 25.1615 4.0625 25.75 4.0625C26.5104 4.0625 27.1875 4.23828 27.7813 4.58984C28.375 4.94141 28.8424 5.42317 29.1836 6.03516C29.5247 6.64714 29.6953 7.34375 29.6953 8.125C29.6953 8.90625 29.5247 9.60286 29.1836 10.2148C28.8424 10.8268 28.375 11.3086 27.7813 11.6602C27.1875 12.0117 26.5104 12.1875 25.75 12.1875C25.1771 12.1875 24.6471 12.0833 24.1602 11.875C23.6732 11.6667 23.2526 11.3776 22.8984 11.0078L22.8984 15.9375L21.6094 15.9375L21.6094 4.21875L22.7734 4.21875ZM25.6328 11.0156C26.1589 11.0156 26.6276 10.8906 27.0391 10.6406C27.4505 10.3906 27.7747 10.0469 28.0117 9.60938C28.2487 9.17187 28.3672 8.67709 28.3672 8.125C28.3672 7.56771 28.2487 7.07162 28.0117 6.63672C27.7747 6.20182 27.4505 5.85938 27.0391 5.60938C26.6276 5.35937 26.1589 5.23438 25.6328 5.23438C25.1068 5.23438 24.638 5.35937 24.2266 5.60938C23.8151 5.85938 23.4909 6.20182 23.2539 6.63672C23.0169 7.07162 22.8984 7.56771 22.8984 8.125C22.8984 8.67709 23.0169 9.17187 23.2539 9.60938C23.4909 10.0469 23.8151 10.3906 24.2266 10.6406C24.638 10.8906 25.1068 11.0156 25.6328 11.0156ZM32.9766 0L32.9766 12.0313L31.6484 12.0313L31.6484 0L32.9766 0ZM34.9297 8.125C34.9297 7.34375 35.1055 6.64714 35.457 6.03516C35.8086 5.42317 36.2904 4.94141 36.9023 4.58984C37.5143 4.23828 38.2109 4.0625 38.9922 4.0625C39.7734 4.0625 40.4701 4.23828 41.082 4.58984C41.694 4.94141 42.1758 5.42317 42.5273 6.03516C42.8789 6.64714 43.0547 7.34375 43.0547 8.125C43.0547 8.90625 42.8789 9.60286 42.5273 10.2148C42.1758 10.8268 41.694 11.3086 41.082 11.6602C40.4701 12.0117 39.7734 12.1875 38.9922 12.1875C38.2109 12.1875 37.5143 12.0117 36.9023 11.6602C36.2904 11.3086 35.8086 10.8268 35.457 10.2148C35.1055 9.60286 34.9297 8.90625 34.9297 8.125ZM36.2578 8.125C36.2578 8.67709 36.3763 9.17187 36.6133 9.60938C36.8503 10.0469 37.1745 10.3906 37.5859 10.6406C37.9974 10.8906 38.4661 11.0156 38.9922 11.0156C39.5182 11.0156 39.987 10.8906 40.3984 10.6406C40.8099 10.3906 41.1341 10.0469 41.3711 9.60938C41.6081 9.17187 41.7266 8.67709 41.7266 8.125C41.7266 7.56771 41.6081 7.07162 41.3711 6.63672C41.1341 6.20182 40.8099 5.85938 40.3984 5.60938C39.987 5.35937 39.5182 5.23438 38.9922 5.23438C38.4661 5.23438 37.9974 5.35937 37.5859 5.60938C37.1745 5.85938 36.8503 6.20182 36.6133 6.63672C36.3763 7.07162 36.2578 7.56771 36.2578 8.125ZM44.4609 4.21875L45.8594 4.21875L47.9375 9.23438C48.026 9.44792 48.1146 9.67318 48.2031 9.91016C48.2917 10.1471 48.3672 10.3724 48.4297 10.5859L48.4609 10.5859C48.5234 10.3672 48.5964 10.1471 48.6797 9.92578C48.763 9.70443 48.8542 9.47136 48.9531 9.22656L51.0313 4.21875L52.3828 4.21875L47.5234 15.9375L46.1641 15.9375L47.7813 12.0313L44.4609 4.21875Z" transform="matrix(0.9848077 0.17364818 -0.17364818 0.9848077 276.03928 18.454899)" id="Deploy" fill="#FFFFFF" stroke="none" />
    <path d="M0 6.09375C0 5.21354 0.15104 4.40235 0.453125 3.66016C0.75521 2.91796 1.17968 2.27344 1.72656 1.72656C2.27344 1.17968 2.91796 0.75521 3.66016 0.453125C4.40235 0.15104 5.21354 0 6.09375 0C6.97396 0 7.78515 0.15104 8.52734 0.453125C9.26954 0.75521 9.91406 1.17968 10.4609 1.72656C11.0078 2.27344 11.4323 2.91796 11.7344 3.66016C12.0365 4.40235 12.1875 5.21354 12.1875 6.09375C12.1875 6.97396 12.0365 7.78515 11.7344 8.52734C11.4323 9.26954 11.0078 9.91406 10.4609 10.4609C9.91406 11.0078 9.26954 11.4323 8.52734 11.7344C7.78515 12.0365 6.97396 12.1875 6.09375 12.1875C5.21354 12.1875 4.40235 12.0365 3.66016 11.7344C2.91796 11.4323 2.27344 11.0078 1.72656 10.4609C1.17968 9.91406 0.75521 9.26954 0.453125 8.52734C0.15104 7.78515 0 6.97396 0 6.09375ZM1.40625 6.09375C1.40625 7.02084 1.60807 7.85026 2.01172 8.58203C2.41537 9.31381 2.97135 9.88932 3.67969 10.3086C4.38802 10.7279 5.1927 10.9375 6.09375 10.9375C6.9948 10.9375 7.79817 10.7279 8.50391 10.3086C9.20964 9.88932 9.76562 9.31381 10.1719 8.58203C10.5781 7.85026 10.7813 7.02084 10.7813 6.09375C10.7813 5.16145 10.5781 4.33073 10.1719 3.60156C9.76562 2.87239 9.20964 2.29818 8.50391 1.87891C7.79817 1.45963 6.9948 1.25 6.09375 1.25C5.1927 1.25 4.38802 1.45963 3.67969 1.87891C2.97135 2.29818 2.41537 2.87239 2.01172 3.60156C1.60807 4.33073 1.40625 5.16145 1.40625 6.09375ZM15.2266 4.14063L15.2969 5.22656C15.651 4.84114 16.0768 4.53776 16.5742 4.31641C17.0716 4.09505 17.6146 3.98438 18.2031 3.98438C18.9635 3.98438 19.6406 4.16015 20.2344 4.51172C20.8281 4.86328 21.2956 5.34505 21.6367 5.95703C21.9779 6.56901 22.1484 7.26562 22.1484 8.04688C22.1484 8.82813 21.9779 9.52474 21.6367 10.1367C21.2956 10.7487 20.8281 11.2305 20.2344 11.582C19.6406 11.9336 18.9635 12.1094 18.2031 12.1094C17.6302 12.1094 17.1003 12.0052 16.6133 11.7969C16.1263 11.5885 15.7057 11.2995 15.3516 10.9297L15.3516 15.8594L14.0625 15.8594L14.0625 4.14063L15.2266 4.14063ZM18.0859 10.9375C18.612 10.9375 19.0807 10.8125 19.4922 10.5625C19.9036 10.3125 20.2279 9.96875 20.4648 9.53125C20.7018 9.09375 20.8203 8.59896 20.8203 8.04688C20.8203 7.48958 20.7018 6.99349 20.4648 6.55859C20.2279 6.1237 19.9036 5.78125 19.4922 5.53125C19.0807 5.28125 18.612 5.15625 18.0859 5.15625C17.5599 5.15625 17.0911 5.28125 16.6797 5.53125C16.2682 5.78125 15.944 6.1237 15.707 6.55859C15.4701 6.99349 15.3516 7.48958 15.3516 8.04688C15.3516 8.59896 15.4701 9.09375 15.707 9.53125C15.944 9.96875 16.2682 10.3125 16.6797 10.5625C17.0911 10.8125 17.5599 10.9375 18.0859 10.9375ZM31.5391 8.03906L31.5391 8.5625L24.9141 8.5625C25.0443 9.25521 25.3789 9.82422 25.918 10.2695C26.457 10.7148 27.1068 10.9375 27.8672 10.9375C28.2891 10.9375 28.7344 10.8555 29.2031 10.6914C29.6719 10.5273 30.099 10.263 30.4844 9.89844L31.2422 10.8672C30.6745 11.3411 30.1081 11.6667 29.543 11.8438C28.9779 12.0208 28.4323 12.1094 27.9063 12.1094C27.0625 12.1094 26.3125 11.9336 25.6563 11.582C25 11.2305 24.4857 10.7448 24.1133 10.125C23.7409 9.50521 23.5547 8.79948 23.5547 8.00781C23.5547 7.23698 23.7292 6.54818 24.0781 5.94141C24.4271 5.33463 24.9062 4.85677 25.5156 4.50781C26.125 4.15885 26.8151 3.98438 27.5859 3.98438C28.3568 3.98438 29.0391 4.15885 29.6328 4.50781C30.2266 4.85677 30.6927 5.33593 31.0313 5.94531C31.3698 6.55469 31.5391 7.2526 31.5391 8.03906ZM24.8984 7.46875L30.1953 7.46875C30.0807 6.78646 29.7865 6.23047 29.3125 5.80078C28.8385 5.37109 28.2604 5.15625 27.5781 5.15625C26.8854 5.15625 26.2943 5.3737 25.8047 5.80859C25.3151 6.24349 25.013 6.79687 24.8984 7.46875ZM33.4922 11.9531L33.4922 4.14063L34.6563 4.14063L34.7344 5.36719C34.9948 4.95052 35.3307 4.61589 35.7422 4.36328C36.1536 4.11068 36.6458 3.98438 37.2188 3.98438C37.4531 3.98438 37.6979 4.00781 37.9531 4.05469L37.7656 5.25C37.5104 5.1875 37.2708 5.15625 37.0469 5.15625C36.3281 5.15625 35.7708 5.42057 35.375 5.94922C34.9792 6.47787 34.7813 7.13281 34.7813 7.91406L34.7813 11.9531L33.4922 11.9531ZM39.0313 9.625C39.0313 8.84375 39.3346 8.22266 39.9414 7.76172C40.5482 7.30078 41.3672 7.07031 42.3984 7.07031C43.0964 7.07031 43.7812 7.17708 44.4531 7.39063L44.4531 7.29688C44.4531 6.63021 44.2617 6.10677 43.8789 5.72656C43.4961 5.34635 42.9714 5.15625 42.3047 5.15625C41.6328 5.15625 40.9036 5.38021 40.1172 5.82813L39.6484 4.75C40.1745 4.47396 40.651 4.27734 41.0781 4.16016C41.5052 4.04297 41.9635 3.98438 42.4531 3.98438C43.4531 3.98438 44.2513 4.28906 44.8477 4.89844C45.444 5.50782 45.7422 6.32291 45.7422 7.34375L45.7422 11.9531L44.5781 11.9531L44.5078 10.7969C44.2474 11.2083 43.8932 11.5299 43.4453 11.7617C42.9974 11.9935 42.4792 12.1094 41.8906 12.1094C41.0417 12.1094 40.3529 11.8802 39.8242 11.4219C39.2956 10.9635 39.0313 10.3646 39.0313 9.625ZM42.5156 8.24219C41.8385 8.24219 41.3099 8.36328 40.9297 8.60547C40.5495 8.84766 40.3594 9.1875 40.3594 9.625C40.3594 10.0208 40.5117 10.3385 40.8164 10.5781C41.1211 10.8177 41.526 10.9375 42.0313 10.9375C42.4896 10.9375 42.901 10.8411 43.2656 10.6484C43.6302 10.4557 43.9193 10.1953 44.1328 9.86719C44.3464 9.53906 44.4531 9.17188 44.4531 8.76563L44.4531 8.55469C43.8177 8.34635 43.1719 8.24219 42.5156 8.24219ZM48.9063 4.14063L48.9063 2.1875L50.1953 2.1875L50.1953 4.14063L52.3203 4.14063L52.3203 5.3125L50.1953 5.3125L50.1953 9.5C50.1953 10.4583 50.6276 10.9375 51.4922 10.9375C51.6276 10.9375 51.7669 10.9258 51.9102 10.9023C52.0534 10.8789 52.1901 10.8359 52.3203 10.7734L52.3203 11.8984C52.1849 11.9557 52.0247 12.0052 51.8398 12.0469C51.6549 12.0885 51.4401 12.1094 51.1953 12.1094C50.4557 12.1094 49.8893 11.8932 49.4961 11.4609C49.1029 11.0286 48.9063 10.4115 48.9063 9.60938L48.9063 5.3125L47.6172 5.3125L47.6172 4.14063L48.9063 4.14063ZM61.9453 8.03906L61.9453 8.5625L55.3203 8.5625C55.4505 9.25521 55.7852 9.82422 56.3242 10.2695C56.8633 10.7148 57.513 10.9375 58.2734 10.9375C58.6953 10.9375 59.1406 10.8555 59.6094 10.6914C60.0781 10.5273 60.5052 10.263 60.8906 9.89844L61.6484 10.8672C61.0807 11.3411 60.5143 11.6667 59.9492 11.8438C59.3841 12.0208 58.8385 12.1094 58.3125 12.1094C57.4687 12.1094 56.7188 11.9336 56.0625 11.582C55.4062 11.2305 54.8919 10.7448 54.5195 10.125C54.1471 9.50521 53.9609 8.79948 53.9609 8.00781C53.9609 7.23698 54.1354 6.54818 54.4844 5.94141C54.8333 5.33463 55.3125 4.85677 55.9219 4.50781C56.5313 4.15885 57.2214 3.98438 57.9922 3.98438C58.763 3.98438 59.4453 4.15885 60.0391 4.50781C60.6328 4.85677 61.099 5.33593 61.4375 5.94531C61.776 6.55469 61.9453 7.2526 61.9453 8.03906ZM55.3047 7.46875L60.6016 7.46875C60.487 6.78646 60.1927 6.23047 59.7188 5.80078C59.2448 5.37109 58.6667 5.15625 57.9844 5.15625C57.2917 5.15625 56.7005 5.3737 56.2109 5.80859C55.7214 6.24349 55.4193 6.79687 55.3047 7.46875Z" transform="matrix(-0.42261833 0.90630776 -0.90630776 -0.42261833 376.87402 104.257034)" id="Operate" fill="#FFFFFF" stroke="none" />
    <path d="M0 0L2.0625 0L5.90625 8.23438L9.74219 0L11.7578 0L11.7578 11.7188L10.3906 11.7188L10.3906 1.75781L6.64063 9.80469L5.13281 9.80469L1.36719 1.74219L1.36719 11.7188L0 11.7188L0 0ZM13.7109 7.8125C13.7109 7.03125 13.8867 6.33464 14.2383 5.72266C14.5898 5.11067 15.0716 4.62891 15.6836 4.27734C16.2956 3.92578 16.9922 3.75 17.7734 3.75C18.5547 3.75 19.2513 3.92578 19.8633 4.27734C20.4753 4.62891 20.957 5.11067 21.3086 5.72266C21.6602 6.33464 21.8359 7.03125 21.8359 7.8125C21.8359 8.59375 21.6602 9.29036 21.3086 9.90234C20.957 10.5143 20.4753 10.9961 19.8633 11.3477C19.2513 11.6992 18.5547 11.875 17.7734 11.875C16.9922 11.875 16.2956 11.6992 15.6836 11.3477C15.0716 10.9961 14.5898 10.5143 14.2383 9.90234C13.8867 9.29036 13.7109 8.59375 13.7109 7.8125ZM15.0391 7.8125C15.0391 8.36459 15.1576 8.85937 15.3945 9.29688C15.6315 9.73438 15.9557 10.0781 16.3672 10.3281C16.7786 10.5781 17.2474 10.7031 17.7734 10.7031C18.2995 10.7031 18.7682 10.5781 19.1797 10.3281C19.5911 10.0781 19.9154 9.73438 20.1523 9.29688C20.3893 8.85937 20.5078 8.36459 20.5078 7.8125C20.5078 7.25521 20.3893 6.75912 20.1523 6.32422C19.9154 5.88932 19.5911 5.54688 19.1797 5.29688C18.7682 5.04687 18.2995 4.92188 17.7734 4.92188C17.2474 4.92188 16.7786 5.04687 16.3672 5.29688C15.9557 5.54688 15.6315 5.88932 15.3945 6.32422C15.1576 6.75912 15.0391 7.25521 15.0391 7.8125ZM23.7891 11.7188L23.7891 3.90625L24.9531 3.90625L25.0234 5.09375C25.3307 4.67187 25.7083 4.34245 26.1563 4.10547C26.6042 3.86849 27.1042 3.75 27.6563 3.75C28.2865 3.75 28.845 3.90234 29.332 4.20703C29.819 4.51172 30.2018 4.93229 30.4805 5.46875C30.7591 6.00521 30.8984 6.61979 30.8984 7.3125L30.8984 11.7188L29.6094 11.7188L29.6094 7.46875C29.6094 6.70833 29.4049 6.09375 28.9961 5.625C28.5872 5.15625 28.0547 4.92188 27.3984 4.92188C26.9557 4.92188 26.5599 5.02995 26.2109 5.24609C25.862 5.46224 25.5859 5.75521 25.3828 6.125C25.1797 6.49479 25.0781 6.91666 25.0781 7.39063L25.0781 11.7188L23.7891 11.7188ZM32.9922 0.898438C32.9922 0.63802 33.0768 0.423178 33.2461 0.253906C33.4154 0.0846346 33.6276 0 33.8828 0C34.1432 0 34.3594 0.0846346 34.5313 0.253906C34.7031 0.423178 34.7891 0.63802 34.7891 0.898438C34.7891 1.15365 34.7031 1.36719 34.5313 1.53906C34.3594 1.71094 34.1432 1.79688 33.8828 1.79688C33.6276 1.79688 33.4154 1.71094 33.2461 1.53906C33.0768 1.36719 32.9922 1.15365 32.9922 0.898438ZM33.2422 11.7188L33.2422 3.90625L34.5391 3.90625L34.5391 11.7188L33.2422 11.7188ZM37.8594 3.90625L37.8594 1.95313L39.1484 1.95313L39.1484 3.90625L41.2734 3.90625L41.2734 5.07813L39.1484 5.07813L39.1484 9.26563C39.1484 10.224 39.5807 10.7031 40.4453 10.7031C40.5807 10.7031 40.7201 10.6914 40.8633 10.668C41.0065 10.6445 41.1432 10.6016 41.2734 10.5391L41.2734 11.6641C41.138 11.7214 40.9779 11.7708 40.793 11.8125C40.6081 11.8542 40.3932 11.875 40.1484 11.875C39.4089 11.875 38.8424 11.6589 38.4492 11.2266C38.056 10.7943 37.8594 10.1771 37.8594 9.375L37.8594 5.07813L36.5703 5.07813L36.5703 3.90625L37.8594 3.90625ZM42.9141 7.8125C42.9141 7.03125 43.0898 6.33464 43.4414 5.72266C43.793 5.11067 44.2747 4.62891 44.8867 4.27734C45.4987 3.92578 46.1953 3.75 46.9766 3.75C47.7578 3.75 48.4544 3.92578 49.0664 4.27734C49.6784 4.62891 50.1602 5.11067 50.5117 5.72266C50.8633 6.33464 51.0391 7.03125 51.0391 7.8125C51.0391 8.59375 50.8633 9.29036 50.5117 9.90234C50.1602 10.5143 49.6784 10.9961 49.0664 11.3477C48.4544 11.6992 47.7578 11.875 46.9766 11.875C46.1953 11.875 45.4987 11.6992 44.8867 11.3477C44.2747 10.9961 43.793 10.5143 43.4414 9.90234C43.0898 9.29036 42.9141 8.59375 42.9141 7.8125ZM44.2422 7.8125C44.2422 8.36459 44.3607 8.85937 44.5977 9.29688C44.8346 9.73438 45.1589 10.0781 45.5703 10.3281C45.9818 10.5781 46.4505 10.7031 46.9766 10.7031C47.5026 10.7031 47.9714 10.5781 48.3828 10.3281C48.7943 10.0781 49.1185 9.73438 49.3555 9.29688C49.5924 8.85937 49.7109 8.36459 49.7109 7.8125C49.7109 7.25521 49.5924 6.75912 49.3555 6.32422C49.1185 5.88932 48.7943 5.54688 48.3828 5.29688C47.9714 5.04687 47.5026 4.92188 46.9766 4.92188C46.4505 4.92188 45.9818 5.04687 45.5703 5.29688C45.1589 5.54688 44.8346 5.88932 44.5977 6.32422C44.3607 6.75912 44.2422 7.25521 44.2422 7.8125ZM52.9922 11.7188L52.9922 3.90625L54.1563 3.90625L54.2344 5.13281C54.4948 4.71614 54.8307 4.38151 55.2422 4.12891C55.6536 3.8763 56.1458 3.75 56.7188 3.75C56.9531 3.75 57.1979 3.77344 57.4531 3.82031L57.2656 5.01563C57.0104 4.95312 56.7708 4.92188 56.5469 4.92188C55.8281 4.92188 55.2708 5.1862 54.875 5.71484C54.4792 6.24349 54.2813 6.89843 54.2813 7.67969L54.2813 11.7188L52.9922 11.7188Z" transform="matrix(0.9612617 0.27563736 -0.27563736 0.9612617 243.01878 157.45532)" id="Monitor" fill="#FFFFFF" stroke="none" />
    <path d="M0 0.3125L4.02344 0.3125C5.33074 0.3125 6.32812 0.634111 7.01563 1.27734C7.70313 1.92058 8.04688 2.77083 8.04688 3.82813C8.04688 4.88021 7.70313 5.72916 7.01563 6.375C6.32812 7.02084 5.33074 7.34375 4.02344 7.34375L1.36719 7.34375L1.36719 12.0313L0 12.0313L0 0.3125ZM1.36719 1.5625L1.36719 6.09375L4.02344 6.09375C4.87761 6.09375 5.52734 5.88542 5.97266 5.46875C6.41797 5.05208 6.64063 4.50521 6.64063 3.82813C6.64063 3.14583 6.41797 2.59766 5.97266 2.18359C5.52734 1.76953 4.87761 1.5625 4.02344 1.5625L1.36719 1.5625ZM11.0938 0L11.0938 12.0313L9.76563 12.0313L9.76563 0L11.0938 0ZM13.3438 9.70313C13.3438 8.92187 13.6471 8.30078 14.2539 7.83984C14.8607 7.3789 15.6797 7.14844 16.7109 7.14844C17.4089 7.14844 18.0937 7.25521 18.7656 7.46875L18.7656 7.375C18.7656 6.70833 18.5742 6.1849 18.1914 5.80469C17.8086 5.42448 17.2839 5.23438 16.6172 5.23438C15.9453 5.23438 15.2162 5.45833 14.4297 5.90625L13.9609 4.82813C14.487 4.55208 14.9635 4.35547 15.3906 4.23828C15.8177 4.12109 16.276 4.0625 16.7656 4.0625C17.7656 4.0625 18.5638 4.36718 19.1602 4.97656C19.7565 5.58594 20.0547 6.40104 20.0547 7.42188L20.0547 12.0313L18.8906 12.0313L18.8203 10.875C18.5599 11.2865 18.2057 11.6081 17.7578 11.8398C17.3099 12.0716 16.7917 12.1875 16.2031 12.1875C15.3542 12.1875 14.6654 11.9583 14.1367 11.5C13.6081 11.0417 13.3438 10.4427 13.3438 9.70313ZM16.8281 8.32031C16.151 8.32031 15.6224 8.44141 15.2422 8.68359C14.862 8.92578 14.6719 9.26562 14.6719 9.70313C14.6719 10.099 14.8242 10.4167 15.1289 10.6563C15.4336 10.8958 15.8385 11.0156 16.3438 11.0156C16.8021 11.0156 17.2135 10.9193 17.5781 10.7266C17.9427 10.5339 18.2318 10.2734 18.4453 9.94531C18.6589 9.61719 18.7656 9.25 18.7656 8.84375L18.7656 8.63281C18.1302 8.42448 17.4844 8.32031 16.8281 8.32031ZM22.3984 12.0313L22.3984 4.21875L23.5625 4.21875L23.6328 5.40625C23.9401 4.98437 24.3177 4.65495 24.7656 4.41797C25.2135 4.18099 25.7135 4.0625 26.2656 4.0625C26.8958 4.0625 27.4544 4.21484 27.9414 4.51953C28.4284 4.82422 28.8112 5.24479 29.0898 5.78125C29.3685 6.31771 29.5078 6.93229 29.5078 7.625L29.5078 12.0313L28.2188 12.0313L28.2188 7.78125C28.2188 7.02083 28.0143 6.40625 27.6055 5.9375C27.1966 5.46875 26.6641 5.23438 26.0078 5.23438C25.5651 5.23438 25.1693 5.34245 24.8203 5.55859C24.4714 5.77474 24.1953 6.06771 23.9922 6.4375C23.7891 6.80729 23.6875 7.22916 23.6875 7.70313L23.6875 12.0313L22.3984 12.0313Z" transform="matrix(0.7193398 0.6946584 -0.6946584 0.7193398 150.76425 38.08277)" id="Plan" fill="#FFFFFF" stroke="none" />
    <path d="M9.50781 9.50781L10.4609 10.4609C9.91927 10.9974 9.27605 11.4193 8.53125 11.7266C7.78645 12.0339 6.97396 12.1875 6.09375 12.1875C5.21354 12.1875 4.40235 12.0365 3.66016 11.7344C2.91797 11.4323 2.27344 11.0078 1.72656 10.4609C1.17968 9.91406 0.75521 9.26954 0.453125 8.52734C0.15104 7.78515 0 6.97396 0 6.09375C0 5.21354 0.15104 4.40235 0.453125 3.66016C0.75521 2.91796 1.17968 2.27344 1.72656 1.72656C2.27344 1.17968 2.91797 0.75521 3.66016 0.453125C4.40235 0.15104 5.21354 0 6.09375 0C6.97396 0 7.78645 0.152342 8.53125 0.457031C9.27605 0.76172 9.91927 1.18489 10.4609 1.72656L9.50781 2.67969C9.08594 2.23177 8.58464 1.88151 8.00391 1.62891C7.42317 1.3763 6.78646 1.25 6.09375 1.25C5.1927 1.25 4.38802 1.45963 3.67969 1.87891C2.97135 2.29818 2.41537 2.87239 2.01172 3.60156C1.60807 4.33073 1.40625 5.16145 1.40625 6.09375C1.40625 7.02084 1.60807 7.85026 2.01172 8.58203C2.41537 9.31381 2.97135 9.88932 3.67969 10.3086C4.38802 10.7279 5.1927 10.9375 6.09375 10.9375C6.78646 10.9375 7.42317 10.8099 8.00391 10.5547C8.58464 10.2995 9.08594 9.95052 9.50781 9.50781ZM11.9453 8.04688C11.9453 7.26562 12.1211 6.56901 12.4727 5.95703C12.8242 5.34505 13.306 4.86328 13.918 4.51172C14.53 4.16015 15.2266 3.98438 16.0078 3.98438C16.7891 3.98438 17.4857 4.16015 18.0977 4.51172C18.7096 4.86328 19.1914 5.34505 19.543 5.95703C19.8945 6.56901 20.0703 7.26562 20.0703 8.04688C20.0703 8.82813 19.8945 9.52474 19.543 10.1367C19.1914 10.7487 18.7096 11.2305 18.0977 11.582C17.4857 11.9336 16.7891 12.1094 16.0078 12.1094C15.2266 12.1094 14.53 11.9336 13.918 11.582C13.306 11.2305 12.8242 10.7487 12.4727 10.1367C12.1211 9.52474 11.9453 8.82813 11.9453 8.04688ZM13.2734 8.04688C13.2734 8.59896 13.3919 9.09375 13.6289 9.53125C13.8659 9.96875 14.1901 10.3125 14.6016 10.5625C15.013 10.8125 15.4818 10.9375 16.0078 10.9375C16.5339 10.9375 17.0026 10.8125 17.4141 10.5625C17.8255 10.3125 18.1497 9.96875 18.3867 9.53125C18.6237 9.09375 18.7422 8.59896 18.7422 8.04688C18.7422 7.48958 18.6237 6.99349 18.3867 6.55859C18.1497 6.1237 17.8255 5.78125 17.4141 5.53125C17.0026 5.28125 16.5339 5.15625 16.0078 5.15625C15.4818 5.15625 15.013 5.28125 14.6016 5.53125C14.1901 5.78125 13.8659 6.1237 13.6289 6.55859C13.3919 6.99349 13.2734 7.48958 13.2734 8.04688ZM25.4219 3.98437C25.9948 3.98437 26.526 4.08854 27.0156 4.29688C27.5052 4.50521 27.9245 4.79427 28.2734 5.16406L28.2734 0.234375L29.5625 0.234375L29.5625 11.9531L28.3984 11.9531L28.3281 10.8672C27.9792 11.2526 27.5547 11.556 27.0547 11.7773C26.5547 11.9987 26.0104 12.1094 25.4219 12.1094C24.6667 12.1094 23.9909 11.9336 23.3945 11.582C22.7982 11.2305 22.3294 10.7487 21.9883 10.1367C21.6471 9.52474 21.4766 8.82813 21.4766 8.04688C21.4766 7.26562 21.6471 6.56901 21.9883 5.95703C22.3294 5.34505 22.7982 4.86328 23.3945 4.51172C23.9909 4.16015 24.6667 3.98437 25.4219 3.98437ZM22.8047 8.04688C22.8047 8.59896 22.9232 9.09375 23.1602 9.53125C23.3971 9.96875 23.7214 10.3125 24.1328 10.5625C24.5443 10.8125 25.013 10.9375 25.5391 10.9375C26.0651 10.9375 26.5339 10.8125 26.9453 10.5625C27.3568 10.3125 27.681 9.96875 27.918 9.53125C28.1549 9.09375 28.2734 8.59896 28.2734 8.04688C28.2734 7.48958 28.1549 6.99349 27.918 6.55859C27.681 6.1237 27.3568 5.78125 26.9453 5.53125C26.5339 5.28125 26.0651 5.15625 25.5391 5.15625C25.013 5.15625 24.5443 5.28125 24.1328 5.53125C23.7214 5.78125 23.3971 6.1237 23.1602 6.55859C22.9232 6.99349 22.8047 7.48958 22.8047 8.04688ZM39.5 8.03906L39.5 8.5625L32.875 8.5625C33.0052 9.25521 33.3398 9.82422 33.8789 10.2695C34.418 10.7148 35.0677 10.9375 35.8281 10.9375C36.25 10.9375 36.6953 10.8555 37.1641 10.6914C37.6328 10.5273 38.0599 10.263 38.4453 9.89844L39.2031 10.8672C38.6354 11.3411 38.069 11.6667 37.5039 11.8438C36.9388 12.0208 36.3932 12.1094 35.8672 12.1094C35.0234 12.1094 34.2734 11.9336 33.6172 11.582C32.9609 11.2305 32.4466 10.7448 32.0742 10.125C31.7018 9.50521 31.5156 8.79948 31.5156 8.00781C31.5156 7.23698 31.6901 6.54818 32.0391 5.94141C32.388 5.33463 32.8672 4.85677 33.4766 4.50781C34.0859 4.15885 34.776 3.98438 35.5469 3.98438C36.3177 3.98438 37 4.15885 37.5938 4.50781C38.1875 4.85677 38.6536 5.33593 38.9922 5.94531C39.3307 6.55469 39.5 7.2526 39.5 8.03906ZM32.8594 7.46875L38.1563 7.46875C38.0417 6.78646 37.7474 6.23047 37.2734 5.80078C36.7995 5.37109 36.2214 5.15625 35.5391 5.15625C34.8464 5.15625 34.2552 5.3737 33.7656 5.80859C33.276 6.24349 32.974 6.79687 32.8594 7.46875Z" transform="matrix(0.92050487 -0.39073113 0.39073113 0.92050487 52.77426 34.05287)" id="Code" fill="#FFFFFF" stroke="none" />
    <path d="M0 0.3125L3.46875 0.3125C4.72396 0.3125 5.69922 0.566404 6.39453 1.07422C7.08985 1.58203 7.4375 2.32031 7.4375 3.28906C7.4375 3.90886 7.29167 4.43489 7 4.86719C6.70833 5.29948 6.29167 5.63281 5.75 5.86719C6.4375 6.10156 6.96614 6.46484 7.33594 6.95703C7.70573 7.44922 7.89063 8.05989 7.89063 8.78906C7.89063 9.84115 7.51563 10.6445 6.76563 11.1992C6.01562 11.7539 4.96615 12.0313 3.61719 12.0313L0 12.0313L0 0.3125ZM1.36719 1.5625L1.36719 5.3125L3.64844 5.3125C4.40365 5.3125 4.98958 5.15235 5.40625 4.83203C5.82292 4.51172 6.03125 4.04688 6.03125 3.4375C6.03125 2.82812 5.82292 2.36328 5.40625 2.04297C4.98958 1.72265 4.40365 1.5625 3.64844 1.5625L1.36719 1.5625ZM3.80469 10.7813C4.65365 10.7813 5.3125 10.6003 5.78125 10.2383C6.25 9.8763 6.48438 9.35157 6.48438 8.66406C6.48438 7.98177 6.25 7.46094 5.78125 7.10156C5.3125 6.74219 4.65365 6.5625 3.80469 6.5625L1.36719 6.5625L1.36719 10.7813L3.80469 10.7813ZM11.0938 4.21875L11.0938 8.46875C11.0938 9.22396 11.2982 9.83724 11.707 10.3086C12.1159 10.78 12.6484 11.0156 13.3047 11.0156C13.7474 11.0156 14.1432 10.9076 14.4922 10.6914C14.8411 10.4753 15.1172 10.181 15.3203 9.80859C15.5234 9.4362 15.625 9.01563 15.625 8.54688L15.625 4.21875L16.9141 4.21875L16.9141 12.0313L15.75 12.0313L15.6797 10.8438C15.3776 11.2656 15.0013 11.5951 14.5508 11.832C14.1003 12.069 13.599 12.1875 13.0469 12.1875C12.4167 12.1875 11.8581 12.0352 11.3711 11.7305C10.8841 11.4258 10.5013 11.0052 10.2227 10.4688C9.94401 9.93229 9.80469 9.31771 9.80469 8.625L9.80469 4.21875L11.0938 4.21875ZM19.1641 1.21094C19.1641 0.95052 19.2487 0.735678 19.418 0.566406C19.5872 0.397135 19.7995 0.3125 20.0547 0.3125C20.3151 0.3125 20.5313 0.397135 20.7031 0.566406C20.875 0.735678 20.9609 0.95052 20.9609 1.21094C20.9609 1.46615 20.875 1.67969 20.7031 1.85156C20.5313 2.02344 20.3151 2.10938 20.0547 2.10938C19.7995 2.10938 19.5872 2.02344 19.418 1.85156C19.2487 1.67969 19.1641 1.46615 19.1641 1.21094ZM19.4141 12.0313L19.4141 4.21875L20.7109 4.21875L20.7109 12.0313L19.4141 12.0313ZM24.5391 0L24.5391 12.0313L23.2109 12.0313L23.2109 0L24.5391 0ZM30.4375 4.0625C31.0104 4.0625 31.5417 4.16667 32.0313 4.375C32.5208 4.58333 32.9401 4.87239 33.2891 5.24219L33.2891 0.3125L34.5781 0.3125L34.5781 12.0313L33.4141 12.0313L33.3438 10.9453C32.9948 11.3307 32.5703 11.6341 32.0703 11.8555C31.5703 12.0768 31.026 12.1875 30.4375 12.1875C29.6823 12.1875 29.0065 12.0117 28.4102 11.6602C27.8138 11.3086 27.3451 10.8268 27.0039 10.2148C26.6628 9.60286 26.4922 8.90625 26.4922 8.125C26.4922 7.34375 26.6628 6.64714 27.0039 6.03516C27.3451 5.42317 27.8138 4.94141 28.4102 4.58984C29.0065 4.23828 29.6823 4.0625 30.4375 4.0625ZM27.8203 8.125C27.8203 8.67709 27.9388 9.17187 28.1758 9.60938C28.4128 10.0469 28.737 10.3906 29.1484 10.6406C29.5599 10.8906 30.0286 11.0156 30.5547 11.0156C31.0807 11.0156 31.5495 10.8906 31.9609 10.6406C32.3724 10.3906 32.6966 10.0469 32.9336 9.60938C33.1706 9.17187 33.2891 8.67709 33.2891 8.125C33.2891 7.56771 33.1706 7.07162 32.9336 6.63672C32.6966 6.20182 32.3724 5.85938 31.9609 5.60938C31.5495 5.35937 31.0807 5.23438 30.5547 5.23438C30.0286 5.23438 29.5599 5.35937 29.1484 5.60938C28.737 5.85938 28.4128 6.20182 28.1758 6.63672C27.9388 7.07162 27.8203 7.56771 27.8203 8.125Z" transform="matrix(-0.3255681 -0.9455186 0.9455186 -0.3255681 28.731644 141.33908)" id="Build" fill="#FFFFFF" stroke="none" />
    <path d="M0 1.25L0 0L8.59375 0L8.59375 1.25L4.97656 1.25L4.97656 11.7188L3.61719 11.7188L3.61719 1.25L0 1.25ZM17.5938 7.80469L17.5938 8.32813L10.9688 8.32813C11.099 9.02084 11.4336 9.58984 11.9727 10.0352C12.5117 10.4805 13.1615 10.7031 13.9219 10.7031C14.3438 10.7031 14.7891 10.6211 15.2578 10.457C15.7266 10.293 16.1536 10.0286 16.5391 9.66406L17.2969 10.6328C16.7292 11.1068 16.1628 11.4323 15.5977 11.6094C15.0325 11.7865 14.487 11.875 13.9609 11.875C13.1172 11.875 12.3672 11.6992 11.7109 11.3477C11.0547 10.9961 10.5404 10.5104 10.168 9.89063C9.79557 9.27083 9.60938 8.56511 9.60938 7.77344C9.60938 7.0026 9.78385 6.31381 10.1328 5.70703C10.4818 5.10026 10.9609 4.6224 11.5703 4.27344C12.1797 3.92448 12.8698 3.75 13.6406 3.75C14.4115 3.75 15.0937 3.92448 15.6875 4.27344C16.2813 4.6224 16.7474 5.10156 17.0859 5.71094C17.4245 6.32032 17.5938 7.01823 17.5938 7.80469ZM10.9531 7.23438L16.25 7.23438C16.1354 6.55208 15.8411 5.9961 15.3672 5.56641C14.8932 5.13672 14.3151 4.92188 13.6328 4.92188C12.9401 4.92188 12.349 5.13932 11.8594 5.57422C11.3698 6.00912 11.0677 6.5625 10.9531 7.23438ZM19.0781 10.9609L19.6875 9.875C20.3125 10.4271 20.9818 10.7031 21.6953 10.7031C22.1172 10.7031 22.4453 10.6042 22.6797 10.4063C22.9141 10.2083 23.0313 9.95052 23.0313 9.63281C23.0313 9.23177 22.8659 8.92318 22.5352 8.70703C22.2044 8.49088 21.8281 8.28906 21.4063 8.10156C21.0781 7.95052 20.7552 7.78646 20.4375 7.60938C20.1198 7.43229 19.8581 7.20833 19.6523 6.9375C19.4466 6.66667 19.3438 6.31511 19.3438 5.88281C19.3438 5.24739 19.5768 4.73307 20.043 4.33984C20.5091 3.94661 21.112 3.75 21.8516 3.75C22.237 3.75 22.6224 3.80338 23.0078 3.91016C23.3932 4.01693 23.737 4.16927 24.0391 4.36719L23.4922 5.36719C23.1849 5.20573 22.9115 5.09115 22.6719 5.02344C22.4323 4.95573 22.1823 4.92188 21.9219 4.92188C21.5208 4.92188 21.2057 5.0026 20.9766 5.16406C20.7474 5.32552 20.6328 5.53906 20.6328 5.80469C20.6328 6.1224 20.7826 6.37891 21.082 6.57422C21.3815 6.76953 21.7292 6.95833 22.125 7.14063C22.4688 7.29688 22.8086 7.47266 23.1445 7.66797C23.4805 7.86328 23.7604 8.10937 23.9844 8.40625C24.2083 8.70313 24.3203 9.08333 24.3203 9.54688C24.3203 10.0052 24.2031 10.4089 23.9688 10.7578C23.7344 11.1068 23.4154 11.3802 23.0117 11.5781C22.6081 11.776 22.151 11.875 21.6406 11.875C21.1823 11.875 20.7292 11.7943 20.2813 11.6328C19.8333 11.4714 19.4323 11.2474 19.0781 10.9609ZM27.1719 3.90625L27.1719 1.95313L28.4609 1.95313L28.4609 3.90625L30.5859 3.90625L30.5859 5.07813L28.4609 5.07813L28.4609 9.26563C28.4609 10.224 28.8932 10.7031 29.7578 10.7031C29.8932 10.7031 30.0326 10.6914 30.1758 10.668C30.319 10.6445 30.4557 10.6016 30.5859 10.5391L30.5859 11.6641C30.4505 11.7214 30.2904 11.7708 30.1055 11.8125C29.9206 11.8542 29.7057 11.875 29.4609 11.875C28.7214 11.875 28.1549 11.6589 27.7617 11.2266C27.3685 10.7943 27.1719 10.1771 27.1719 9.375L27.1719 5.07813L25.8828 5.07813L25.8828 3.90625L27.1719 3.90625Z" transform="matrix(0.9986295 -0.05233596 0.05233596 0.9986295 91.0234 168.11592)" id="Test" fill="#FFFFFF" stroke="none" />
  </g>
</svg>