<?xml version="1.0" encoding="utf-8"?>
<svg width="44px" height="49px" viewBox="0 0 44 49" version="1.1" xmlns:xlink="http://www.w3.org/1999/xlink" xmlns="http://www.w3.org/2000/svg">
  <desc>Created with Lunacy</desc>
  <defs>
    <path d="M22 3.33886e-13L44 12L44 36L22 48L1.52732e-13 36L1.52732e-13 12L22 3.33886e-13Z" id="path_1" />
    <clipPath id="clip_1">
      <use xlink:href="#path_1" />
    </clipPath>
  </defs>
  <g id="integrations">
    <path d="M7.36842 3.68421C7.36842 5.71894 5.71894 7.36842 3.68421 7.36842C1.64948 7.36842 0 5.71894 0 3.68421C0 1.64948 1.64948 0 3.68421 0C5.71894 0 7.36842 1.64948 7.36842 3.68421ZM1.05263 3.68421C1.05263 5.13759 2.23083 6.31579 3.68421 6.31579C5.13759 6.31579 6.31579 5.13759 6.31579 3.68421C6.31579 2.23083 5.13759 1.05263 3.68421 1.05263C2.23083 1.05263 1.05263 2.23083 1.05263 3.68421ZM20 2.63158C20 4.08496 18.8218 5.26316 17.3684 5.26316C15.915 5.26316 14.7368 4.08496 14.7368 2.63158C14.7368 1.1782 15.915 0 17.3684 0C18.8218 0 20 1.1782 20 2.63158ZM15.7895 2.63158C15.7895 3.50361 16.4964 4.21053 17.3684 4.21053C18.2404 4.21053 18.9474 3.50361 18.9474 2.63158C18.9474 1.75955 18.2404 1.05263 17.3684 1.05263C16.4964 1.05263 15.7895 1.75955 15.7895 2.63158ZM5.26316 17.3684C5.26316 18.8218 4.08496 20 2.63158 20C1.1782 20 0 18.8218 0 17.3684C0 15.915 1.1782 14.7368 2.63158 14.7368C4.08496 14.7368 5.26316 15.915 5.26316 17.3684ZM1.05263 17.3684C1.05263 18.2404 1.75955 18.9474 2.63158 18.9474C3.50361 18.9474 4.21053 18.2404 4.21053 17.3684C4.21053 16.4964 3.50361 15.7895 2.63158 15.7895C1.75955 15.7895 1.05263 16.4964 1.05263 17.3684ZM16.8421 11.5789C16.8421 14.4857 14.4857 16.8421 11.5789 16.8421C8.67219 16.8421 6.31579 14.4857 6.31579 11.5789C6.31579 8.67219 8.67219 6.31579 11.5789 6.31579C14.4857 6.31579 16.8421 8.67219 16.8421 11.5789ZM7.36842 11.5789C7.36842 13.9044 9.25354 15.7895 11.5789 15.7895C13.9044 15.7895 15.7895 13.9044 15.7895 11.5789C15.7895 9.25354 13.9044 7.36842 11.5789 7.36842C9.25354 7.36842 7.36842 9.25354 7.36842 11.5789ZM5.02793 16.7543L8.17377 14.6659L7.59158 13.7889L4.44575 15.8773L5.02793 16.7543ZM5.43823 6.1764L7.81857 8.49754L8.55346 7.7439L6.17312 5.42276L5.43823 6.1764ZM14.3215 7.86003L16.7367 4.64364L15.8949 4.01158L13.4798 7.22797L14.3215 7.86003Z" transform="translate(12 14)" id="Combined-Shape" fill="#545B5E" stroke="none" />
    <g id="Polygon-Copy">
      <g clip-path="url(#clip_1)">
        <use xlink:href="#path_1" fill="none" stroke="#545B5E" stroke-width="2" />
      </g>
    </g>
    <path d="M8 16C12.4183 16 16 12.4183 16 8C16 3.58172 12.4183 0 8 0C3.58172 0 0 3.58172 0 8C0 12.4183 3.58172 16 8 16Z" transform="translate(25 33)" id="Oval-Copy" fill="#F8333C" fill-rule="evenodd" stroke="none" />
    <path d="M0.993971 2.85355L8.94573 2.85355L8.94573 1.85355L0.993971 1.85355L0.993971 2.85355ZM6.95779 4L7.66064 4.70711L10 2.35355L7.66064 0L6.95779 0.707107L8.59431 2.35355L6.95779 4ZM3.04221 4L2.33936 4.70711L0 2.35355L2.33936 0L3.04221 0.707107L1.40569 2.35355L3.04221 4Z" transform="translate(28 38.646446)" id="Combined-Shape" fill="#FFFFFF" stroke="none" />
  </g>
</svg>