<?xml version="1.0" encoding="utf-8"?>
<svg width="133px" height="145px" viewBox="0 0 133 145" version="1.1" xmlns:xlink="http://www.w3.org/1999/xlink" xmlns="http://www.w3.org/2000/svg">
  <desc>Created with Lunacy</desc>
  <g id="workflow" transform="translate(0.5 0.5)">
    <path d="M66 1.00166e-12L132 36L132 108L66 144L4.58196e-13 108L4.58196e-13 36L66 1.00166e-12Z" id="Polygon-Copy-9" fill="#F0F3F4" fill-rule="evenodd" stroke="none" />
    <path d="M0 0L32 0L32 32L0 32L0 0Z" transform="translate(30 36)" id="Rectangle" fill="#FFFFFF" fill-rule="evenodd" stroke="none" />
    <path d="M0 0L32 0L32 32L0 32L0 0Z" transform="translate(70 76)" id="Rectangle-Copy-17" fill="#FFFFFF" fill-rule="evenodd" stroke="none" />
    <path d="M21 42C32.598 42 42 32.598 42 21C42 9.40202 32.598 0 21 0C9.40202 0 0 9.40202 0 21C0 32.598 9.40202 42 21 42Z" transform="translate(80 102)" id="Oval" fill="#F8333C" fill-rule="evenodd" stroke="none" />
    <path d="M7.95898 7.28516C8.85092 7.48698 9.57519 7.87923 10.1318 8.46191C10.6885 9.0446 10.9668 9.79817 10.9668 10.7227C10.9668 11.6406 10.7422 12.4365 10.293 13.1104C9.84375 13.7842 9.20736 14.3066 8.38379 14.6777C7.56022 15.0488 6.58855 15.2344 5.46875 15.2344C4.34895 15.2344 3.34636 15.0326 2.46094 14.6289C1.57552 14.2253 0.755212 13.597 0 12.7441L2.05078 10.8301C2.3763 11.1816 2.6888 11.4893 2.98828 11.7529C3.28776 12.0166 3.62467 12.2233 3.99902 12.373C4.37337 12.5228 4.83398 12.5977 5.38086 12.5977C6.13607 12.5977 6.7513 12.4154 7.22656 12.0508C7.70183 11.6862 7.93945 11.1947 7.93945 10.5762C7.93945 9.89909 7.63998 9.39291 7.04102 9.05762C6.44205 8.72233 5.62826 8.55469 4.59961 8.55469L3.36914 8.55469L3.36914 6.11328L4.96094 6.11328C5.81381 6.11328 6.41764 5.92123 6.77246 5.53711C7.12728 5.15299 7.30469 4.73308 7.30469 4.27734C7.30469 3.88021 7.20215 3.56283 6.99707 3.3252C6.79199 3.08756 6.53483 2.91504 6.22559 2.80762C5.91634 2.70019 5.60547 2.64648 5.29297 2.64648C4.23828 2.64648 3.28451 3.16406 2.43164 4.19922L0.546875 2.44141C1.24349 1.60156 1.99381 0.984702 2.79785 0.59082C3.60189 0.196938 4.51497 0 5.53711 0C6.11654 0 6.69108 0.0895173 7.26074 0.268555C7.83041 0.447592 8.34635 0.708006 8.80859 1.0498C9.27084 1.3916 9.6403 1.80989 9.91699 2.30469C10.1937 2.79948 10.332 3.36263 10.332 3.99414C10.332 4.78191 10.1156 5.44596 9.68262 5.98633C9.24967 6.5267 8.67513 6.91406 7.95898 7.14844L7.95898 7.28516Z" transform="translate(95.61426 115.05859)" id="3" fill="#FFFFFF" fill-rule="evenodd" stroke="none" />
    <path d="M0 0L6 0L6 6L0 6L0 0Z" transform="translate(36 44)" id="Rectangle" fill="#F8333C" fill-rule="evenodd" stroke="none" />
    <path d="M0 0L6 0L6 6L0 6L0 0Z" transform="translate(76 84)" id="Rectangle-Copy-18" fill="#071013" fill-rule="evenodd" stroke="none" />
    <path d="M0 0L20 0L20 4L0 4L0 0Z" transform="translate(36 56)" id="Rectangle" fill="#D8D8D8" fill-rule="evenodd" stroke="none" />
    <path d="M0 0L20 0L20 4L0 4L0 0Z" transform="translate(76 96)" id="Rectangle-Copy-19" fill="#D8D8D8" fill-rule="evenodd" stroke="none" />
    <path d="M4.93579 0L9.87158 4.77473L9 5.265L5.43579 1.92986L5.43579 21.0199L24.5258 21.0199L21.1907 17.4557L21.6809 16.5841L26.4557 21.5199L21.6809 26.4557L21.1907 25.5841L24.5258 22.0199L4.43579 22.0199L4.43579 1.92686L0.871576 5.265L0 4.77473L4.93579 0Z" transform="translate(41.064213 70.48013)" id="Path-16" fill="#ADB2B4" fill-rule="evenodd" stroke="none" />
    <path d="M4.93579 0L9.87158 4.77473L9 5.265L5.43579 1.92986L5.43579 21.0199L24.5258 21.0199L21.1907 17.4557L21.6809 16.5841L26.4557 21.5199L21.6809 26.4557L21.1907 25.5841L24.5258 22.0199L4.43579 22.0199L4.43579 1.92686L0.871576 5.265L0 4.77473L4.93579 0Z" transform="matrix(-1 0 0 -1 90.93565 73.515656)" id="Path-16-Copy" fill="#ADB2B4" fill-rule="evenodd" stroke="none" />
  </g>
</svg>